<?xml version="1.0" encoding="utf-8"?><svg xmlns="http://www.w3.org/2000/svg" xmlns:xlink="http://www.w3.org/1999/xlink"><symbol viewBox="0 0 24 24" id="account"><path fill="currentColor" d="M12 2C6.477 2 2 6.477 2 12s4.477 10 10 10 10-4.477 10-10A10 10 0 0 0 12 2m0 3a3 3 0 1 1 0 6 3 3 0 0 1 0-6m5.62 11.16a7 7 0 0 1-11.24 0 1 1 0 0 1-.07-1l.21-.44A3 3 0 0 1 9.23 13h5.54a3 3 0 0 1 2.69 1.68l.23.47a1 1 0 0 1-.07 1.01"/></symbol><symbol viewBox="0 0 24 24" id="add"><path fill="currentColor" d="M19 11.5v1a.5.5 0 0 1-.5.5H13v5.5a.5.5 0 0 1-.5.5h-1a.5.5 0 0 1-.5-.5V13H5.5a.5.5 0 0 1-.5-.5v-1a.5.5 0 0 1 .5-.5H11V5.5a.5.5 0 0 1 .5-.5h1a.5.5 0 0 1 .5.5V11h5.5a.5.5 0 0 1 .5.5"/></symbol><symbol viewBox="0 0 24 24" id="ai-edit"><path fill="currentColor" fill-rule="evenodd" clip-rule="evenodd" d="M12.331 2.422a.84.84 0 0 1-.635-.635L11.47.766c-.082-.367-.604-.367-.685 0l-.227 1.02a.84.84 0 0 1-.635.636l-1.02.227c-.367.08-.367.603 0 .684l1.02.227c.317.07.565.318.635.635l.227 1.021c.081.366.603.366.684 0l.227-1.021a.84.84 0 0 1 .635-.635l1.021-.227c.367-.081.367-.603 0-.684zM5.967 5.546a.5.5 0 0 1-.376-.377l-.44-1.977c-.115-.518-.853-.518-.969 0l-.44 1.977a.5.5 0 0 1-.376.377l-1.977.44c-.518.115-.518.853 0 .968l1.977.44a.5.5 0 0 1 .377.376l.44 1.978c.115.518.853.518.968 0l.44-1.978a.5.5 0 0 1 .376-.376l1.978-.44c.518-.115.518-.853 0-.969zm11.853 6.139a.5.5 0 0 0 0-.7l-2.854-2.813a.5.5 0 0 0-.708 0l-8.052 8.053a2 2 0 0 0-.449.679l-1.716 4.331a.5.5 0 0 0 .19.619.5.5 0 0 0 .538.11l4.33-1.757c.255-.101.486-.254.679-.449zm3.082-7.246.659.659c.28.28.439.66.439 1.058v.758c.005.404-.153.793-.44 1.078l-1.845 1.816a.5.5 0 0 1-.708 0l-2.804-2.844a.5.5 0 0 1 0-.699L18.01 4.44A1.5 1.5 0 0 1 19.087 4h.758c.397 0 .777.158 1.057.44"/></symbol><symbol viewBox="0 0 24 24" id="ai-graphics"><path fill="currentColor" d="M4.183 3.192c.115-.518.853-.518.968 0l.44 1.977a.5.5 0 0 0 .376.377l1.978.44c.518.115.518.853 0 .968l-1.978.44a.5.5 0 0 0-.376.376l-.44 1.978c-.115.518-.853.518-.968 0l-.44-1.978a.5.5 0 0 0-.377-.376l-1.977-.44c-.518-.115-.518-.853 0-.968l1.977-.44a.5.5 0 0 0 .377-.377zM10.785.766c.081-.367.604-.367.685 0l.226 1.02c.07.317.318.566.635.636l1.021.227c.367.081.367.603 0 .684l-1.021.227a.84.84 0 0 0-.635.635l-.226 1.021c-.082.366-.604.366-.685 0l-.226-1.021a.84.84 0 0 0-.636-.635l-1.02-.227c-.367-.08-.367-.603 0-.684l1.02-.227a.84.84 0 0 0 .636-.636zm-.264 14.85a3.407 3.407 0 0 1 0 4.869c-2.023 1.987-5.034 2.403-7.48 1.263-.063-.03-.063-.123.015-.139.361-.107.69-.292.973-.57a2.34 2.34 0 0 0 .658-2.064.2.2 0 0 0-.031-.093 3.36 3.36 0 0 1 .925-3.25c1.349-1.372 3.576-1.372 4.94-.016M21.577 4.61a2.3 2.3 0 0 0-1.622-.673c-.587 0-1.174.223-1.621.67 0 0-.007.009-.01.01l-8.736 9.58a4.25 4.25 0 0 1 2.413 2.382l9.561-8.714c.958-.859.907-2.36.012-3.255z"/></symbol><symbol viewBox="0 0 24 24" id="ai-labs"><path fill="currentColor" d="M13.388 12.25a.84.84 0 0 1-.638.638l-3.347.744c-.877.195-.877 1.444 0 1.639l3.347.744a.84.84 0 0 1 .638.637L14.132 20c.195.877 1.444.877 1.64 0l.743-3.347a.84.84 0 0 1 .637-.638l3.348-.744c.877-.195.877-1.444 0-1.64l-3.347-.743a.84.84 0 0 1-.638-.638l-.744-3.347c-.195-.877-1.444-.877-1.64 0zm-8.12-7.554A1.42 1.42 0 0 1 4.193 5.77l-1.728.383c-.62.138-.62 1.022 0 1.16l1.728.383c.537.119.956.538 1.075 1.075l.384 1.728c.138.62 1.021.62 1.159 0l.384-1.728A1.42 1.42 0 0 1 8.27 7.697l1.728-.384c.62-.137.62-1.021 0-1.159L8.27 5.771a1.42 1.42 0 0 1-1.075-1.075L6.81 2.968c-.138-.62-1.021-.62-1.159 0z"/></symbol><symbol viewBox="0 0 24 24" id="ai-labs-adobe-extensions"><path fill="currentColor" d="M14.41 6H20a2 2 0 0 1 2 2v10a2 2 0 0 1-2 2H4a2 2 0 0 1-2-2V6a2 2 0 0 1 2-2h7.59a1 1 0 0 1 .7.29l1.42 1.42a1 1 0 0 0 .7.29m3.273 4.066h.055c.165 0 .3.115.3.257v4.629c0 .142-.135.257-.3.257h-.055a.65.65 0 0 1-.42-.15l-2.626-1.393v1.543c0 .568-.537 1.029-1.2 1.029h-6.2c-.662 0-1.2-.461-1.2-1.029v-5.143c0-.568.538-1.028 1.2-1.028h6.2c.663 0 1.2.46 1.2 1.028v1.543l2.627-1.394a.65.65 0 0 1 .42-.149"/></symbol><symbol viewBox="0 0 24 24" id="ai-labs-canva"><path fill="currentColor" d="M12 2C6.486 2 2 6.486 2 12s4.486 10 10 10 10-4.486 10-10S17.514 2 12 2m-.387 16.502c-2.949 0-4.86-2.212-4.86-5.558 0-4.322 2.995-7.447 6.365-7.447 2.04 0 3.255 1.027 3.255 2.423 0 1.44-1.041 2.46-1.929 2.46-.22 0-.332-.108-.332-.287 0-.399.643-.998.643-2.129 0-.953-.582-1.551-1.535-1.551-2.04 0-4.36 2.409-4.36 6.575 0 2.46 1.22 4.24 3.194 4.24 1.706 0 3.18-1.224 4.033-2.955.076-.152.148-.221.23-.221.12 0 .235.102.235.326-.001 1.01-1.81 4.124-4.94 4.124"/></symbol><symbol viewBox="0 0 24 24" id="ai-labs-figma"><path fill="currentColor" d="M8.301 23c-1.804 0-3.266-1.499-3.266-3.348s1.462-3.348 3.266-3.348h3.267v3.348c0 1.85-1.463 3.348-3.267 3.348m7.432-15.304h-3.266V1h3.266C17.538 1 19 2.499 19 4.348s-1.462 3.348-3.267 3.348m-7.466 0h3.266V1H8.267C6.463 1 5 2.499 5 4.348s1.463 3.348 3.267 3.348m0 7.652h3.266V8.652H8.267C6.463 8.652 5 10.151 5 12s1.463 3.348 3.267 3.348m7-6.696a2.77 2.77 0 0 0-1.98.84 2.9 2.9 0 0 0-.82 2.03c0 .76.295 1.49.82 2.029s1.237.84 1.98.84 1.454-.302 1.98-.84c.525-.538.82-1.268.82-2.03 0-.76-.295-1.49-.82-2.028a2.77 2.77 0 0 0-1.98-.84"/></symbol><symbol viewBox="0 0 24 24" id="ai-labs-image-gen"><path fill="currentColor" fill-rule="evenodd" clip-rule="evenodd" d="M12.3 3.2c.3 0 .6-.3.6-.6l.2-1c0-.4.6-.4.7 0l.2 1c0 .3.3.6.6.6l1 .2c.4 0 .4.6 0 .7l-1 .2c-.3 0-.6.3-.6.6l-.2 1c0 .4-.6.4-.7 0l-.2-1c0-.3-.3-.6-.6-.6l-1-.2c-.4 0-.4-.6 0-.7zm6.2 3.1c.2 0 .3-.2.4-.4l.4-2c.1-.5.9-.5 1 0l.4 2c0 .2.2.3.4.4l2 .4c.5.1.5.9 0 1l-2 .4c-.2 0-.3.2-.4.4l-.4 2c-.1.5-.9.5-1 0l-.4-2c0-.2-.2-.3-.4-.4l-2-.4c-.5-.1-.5-.9 0-1zM5 3h4v2H5v11.7c0 .2.1.4.1.4.1.1.3.1.4.1.2 0 .4-.1.4-.2l2.6-3.4c.1-.2.2-.2.4-.2.1 0 .3.1.4.2l1 1.4c.1.2.2.2.4.2s.4-.1.4-.2l2.2-2.9c.1-.2.2-.2.4-.2s.4.1.4.2l4 5c.1.2.2.2.4.2s.4-.1.4-.1c.1-.1.1-.3.1-.4V13h2v6c0 1.1-.9 2-2 2H5c-1.1 0-2-.9-2-2V5c0-1.1.9-2 2-2m3 6.5C8 8.7 8.7 8 9.5 8s1.5.7 1.5 1.5-.7 1.5-1.5 1.5S8 10.3 8 9.5"/></symbol><symbol viewBox="0 0 24 24" id="ai-labs-premiere-pro"><path fill="currentColor" d="M19.889 3H5.11C3.95 3 3 3.95 3 5.111V19.89C3 21.05 3.95 22 5.111 22H19.89c1.16 0 2.11-.95 2.11-2.111V5.11C22 3.95 21.05 3 19.889 3m-9.722 6.652H8.99v2.652h1.178c.786 0 .982-.59.982-1.277 0-.688-.294-1.375-.982-1.375m0 4.026H8.99v3.044H7.222V8.278h2.848c2.455 0 2.75 2.259 2.75 2.75-.001 1.963-1.376 2.65-2.653 2.65m7.437-1.6c-.078-.009-.5-.05-.582-.05-.672 0-.889.425-.971.631v4.063h-1.757V10.39h1.651l.05.724c.132-.268.484-.848 1.144-.848.29 0 .425.056.483.08z"/></symbol><symbol viewBox="0 0 24 24" id="ai-labs-search"><path fill="currentColor" fill-rule="evenodd" clip-rule="evenodd" d="M16.656 1.57a.84.84 0 0 1-.635.636L15 2.433c-.367.08-.367.603 0 .684l1.02.227c.318.07.566.318.636.635L16.883 5c.081.367.603.367.684 0l.227-1.02a.84.84 0 0 1 .635-.636l1.021-.227c.367-.081.367-.603 0-.684l-1.02-.227a.84.84 0 0 1-.636-.635L17.567.55c-.08-.367-.603-.367-.684 0zm2.399 7.09a.5.5 0 0 1-.377.377l-1.977.44c-.518.114-.518.853 0 .968l1.977.44a.5.5 0 0 1 .377.376l.44 1.978c.115.518.853.518.968 0l.44-1.978a.5.5 0 0 1 .376-.377l1.978-.44c.518-.114.518-.853 0-.968l-1.978-.44a.5.5 0 0 1-.376-.376l-.44-1.978c-.115-.518-.853-.518-.968 0zm-4.18 6.795 4 4.005a.5.5 0 0 1-.02.691l-.7.7a.5.5 0 0 1-.71 0l-4-4.004a2.6 2.6 0 0 1-.3-.36l-.75-1.001a7 7 0 0 1-4.37 1.531A7.01 7.01 0 0 1 4.973 3.69a6.995 6.995 0 0 1 8.518 1.971 7.015 7.015 0 0 1-.046 8.753l1 .691q.235.151.43.35M3.025 10.01a5.003 5.003 0 0 0 5 5.006 5 5 0 0 0 3.535-1.466 5 5 0 0 0 1.465-3.54 5.003 5.003 0 0 0-5-5.006c-2.761 0-5 2.241-5 5.006"/></symbol><symbol viewBox="0 0 24 24" id="ai-music"><path fill="currentColor" d="M20.93 2.931a.84.84 0 0 1-.636-.635l-.227-1.021c-.08-.367-.603-.367-.684 0l-.227 1.02a.84.84 0 0 1-.635.636l-1.021.227c-.366.08-.366.603 0 .684l1.02.227c.318.07.566.318.636.635l.227 1.021c.081.367.603.367.684 0l.227-1.02a.84.84 0 0 1 .635-.636l1.021-.227c.367-.08.367-.603 0-.684zM7.966 6.055a.5.5 0 0 1-.376-.377l-.44-1.977c-.115-.518-.853-.518-.969 0l-.44 1.977a.5.5 0 0 1-.376.377l-1.977.44c-.518.115-.518.853 0 .968l1.977.44a.5.5 0 0 1 .377.376l.44 1.978c.115.518.853.518.968 0l.44-1.978a.5.5 0 0 1 .376-.376l1.978-.44c.518-.115.518-.853 0-.968zM18 11.497v-1.26a4.62 4.62 0 0 0-2.57-4.148A2.67 2.67 0 0 1 14 3.669V3.5a.5.5 0 0 0-.5-.5h-1a.5.5 0 0 0-.5.5v10.985a4.3 4.3 0 0 0-2-.49 3.78 3.78 0 0 0-4 3.5 3.78 3.78 0 0 0 4 3.498 3.78 3.78 0 0 0 4-3.459V8.538l.11.076c.124.087.25.176.39.254a2.71 2.71 0 0 1 1.5 2.359v.27a.5.5 0 0 0 .5.5h1a.5.5 0 0 0 .5-.5"/></symbol><symbol viewBox="0 0 24 24" id="ai-sound"><path fill="currentColor" d="M23.461 15.835v1.002a.5.5 0 0 1-.5.502h-.68a2 2 0 0 1-2-1.615l-1.61-8.244a.22.22 0 0 0-.41 0l-2.63 14.041a2.24 2.24 0 0 1-2.133 1.82 2.24 2.24 0 0 1-2.237-1.69l-2.54-10.17a.21.21 0 0 0-.2-.16h-.19a.22.22 0 0 0-.2.14l-1.49 4.504a2 2 0 0 1-1.9 1.374h-.78a.5.5 0 0 1-.5-.502v-1.002a.5.5 0 0 1 .5-.502h.78l1.5-4.503a2.2 2.2 0 0 1 2.09-1.514h.19a2.21 2.21 0 0 1 2.14 1.675l2.54 10.2a.21.21 0 0 0 .2.16c.16 0 .24-.07.26-.17l2.63-14.042a2.21 2.21 0 0 1 2.17-1.796c1.06 0 1.97.753 2.17 1.796l1.65 8.194h.68a.5.5 0 0 1 .5.502M4.908 5.162a.5.5 0 0 1 .377-.377l1.977-.44c.518-.115.518-.853 0-.968l-1.977-.44a.5.5 0 0 1-.377-.376L4.468.583c-.115-.518-.853-.518-.968 0l-.44 1.978a.5.5 0 0 1-.376.376l-1.978.44c-.518.115-.518.853 0 .968l1.978.44a.5.5 0 0 1 .376.377l.44 1.977c.115.518.853.518.968 0zm7.936-1.022a.84.84 0 0 1 .635-.635L14.5 3.28c.367-.081.367-.604 0-.685l-1.02-.227a.84.84 0 0 1-.636-.635l-.227-1.02c-.081-.367-.603-.367-.684 0l-.227 1.02a.84.84 0 0 1-.635.635l-1.021.227c-.367.081-.367.604 0 .685l1.02.226c.318.07.566.318.636.636l.227 1.02c.08.367.603.367.684 0z"/></symbol><symbol viewBox="0 0 24 24" id="ai-video"><path fill="currentColor" fill-rule="evenodd" clip-rule="evenodd" d="M11.366 4.59a.5.5 0 0 1 .377.377l.44 1.978c.114.518.853.518.968 0l.44-1.978a.5.5 0 0 1 .376-.376l1.978-.44c.518-.115.518-.853 0-.969l-1.978-.44a.5.5 0 0 1-.377-.376L13.15.388c-.114-.517-.853-.517-.968 0l-.44 1.978a.5.5 0 0 1-.376.377l-1.977.44c-.518.115-.518.853 0 .968zm8.008 2.149c.317.07.564.318.635.635l.226 1.021c.082.367.604.367.685 0l.227-1.02a.84.84 0 0 1 .635-.636l1.02-.227c.367-.081.367-.603 0-.684l-1.02-.227a.84.84 0 0 1-.635-.635l-.227-1.021c-.081-.367-.603-.367-.685 0l-.226 1.02a.84.84 0 0 1-.636.636l-1.02.227c-.367.08-.367.603 0 .684zm-.35 5.118h.083c.257 0 .464.208.464.464v8.358a.464.464 0 0 1-.464.464h-.083a.93.93 0 0 1-.65-.27l-2.517-2.516v2.786A1.857 1.857 0 0 1 14 23H2.857A1.857 1.857 0 0 1 1 21.143v-9.286C1 10.832 1.831 10 2.857 10H14c1.026 0 1.857.832 1.857 1.857v2.786l2.517-2.517a.93.93 0 0 1 .65-.269M3.786 14.996c0 .256.208.464.464.464h3.714a.464.464 0 0 0 .465-.464v-.706a.464.464 0 0 0-.465-.464H4.25a.464.464 0 0 0-.464.464z"/></symbol><symbol viewBox="0 0 24 24" id="ai-voice"><path fill="currentColor" fill-rule="evenodd" clip-rule="evenodd" d="M18.921 4.702a.5.5 0 0 1 .377.376l.44 1.978c.114.518.853.518.968 0l.44-1.978a.5.5 0 0 1 .376-.376l1.978-.44c.518-.115.518-.853 0-.968l-1.978-.44a.5.5 0 0 1-.377-.376L20.705.5c-.114-.518-.853-.518-.968 0l-.44 1.978a.5.5 0 0 1-.376.376l-1.978.44c-.518.115-.518.853 0 .968zm-17.4 5.748c.317.07.565.318.635.635l.227 1.021c.08.367.603.367.684 0l.227-1.02a.84.84 0 0 1 .635-.636l1.021-.227c.366-.08.366-.603 0-.684l-1.021-.227a.84.84 0 0 1-.635-.635l-.227-1.021c-.081-.367-.603-.367-.684 0l-.227 1.02a.84.84 0 0 1-.635.636L.5 9.539c-.367.08-.367.603 0 .684zM8 7v4a4 4 0 0 0 8 0V7a4 4 0 0 0-8 0m10.86 7.2a.39.39 0 0 1 .22.25.38.38 0 0 1-.08.33v.08a8 8 0 0 1-6 4.07V21h1.5a.5.5 0 0 1 .5.5v1a.5.5 0 0 1-.5.5h-5a.5.5 0 0 1-.5-.5v-1a.5.5 0 0 1 .5-.5h1.46v-2.02a8 8 0 0 1-6-4.07.5.5 0 0 1 0-.4.48.48 0 0 1 .26-.3l.91-.42a.49.49 0 0 1 .64.21 6 6 0 0 0 10.49-.11.42.42 0 0 1 .55-.18z"/></symbol><symbol viewBox="0 0 24 24" id="ampersand"><path fill="currentColor" d="M15.133 7.956c-.11 1.977-1.422 3.11-4.71 4.444.844 1.156 2.088 2.711 3.666 3.867.91-1.134 1.266-3.09 1.266-4.622h4.223v1.866h-2.4c-.223 1.6-.623 2.556-1.4 3.733.866.378 1.822.623 2.844.623h.956v1.955H18.4c-1.534 0-2.911-.422-4.133-1.089-1.178.845-2.6 1.267-4.178 1.267C7.622 20 5 18.467 5 15.467c0-1.711 1.089-3.111 2.489-3.934-.578-.91-1.245-2.11-1.245-3.488C6.244 5.734 8 4.022 10.867 4c2.31-.022 4.4 1.534 4.266 3.956M8.378 7.91a3.7 3.7 0 0 0 .289 1.578c.289.689.466 1 .289 1.178-.112.11-.134.222-.067.289.089.089.178.089.489-.134.222-.155.533-.31 1.133-.577 1.867-.8 2.4-1.356 2.489-2.423.089-1.31-1.245-1.955-2.222-1.955-1.156 0-2.378.578-2.4 2.044m-1.245 7.756c0 1.266.956 2.466 3.09 2.466a5.8 5.8 0 0 0 1.644-.222.72.72 0 0 1 .644.045c.178.088.333.155.4.022.089-.156-.089-.222-.311-.378-.378-.244-.511-.333-.867-.689a21.5 21.5 0 0 1-2.51-2.822c-.29-.378-.356-.645-.268-.778.09-.133.156-.222.067-.31-.111-.112-.222-.068-.422.132-.244.245-.311.267-.822.712-.467.4-.645.977-.645 1.822"/></symbol><symbol viewBox="0 0 24 24" id="android-phone"><path fill="currentColor" d="M16 1H8a3 3 0 0 0-3 3v16a3 3 0 0 0 3 3h8a3 3 0 0 0 3-3V4a3 3 0 0 0-3-3m0 3a1 1 0 0 1 1 1v14a1 1 0 0 1-1 1H8a1 1 0 0 1-1-1V5a1 1 0 0 1 1-1z"/></symbol><symbol viewBox="0 0 24 24" id="apple-music"><path fill="currentColor" d="M21.997 7.104c0-.615-.052-1.227-.199-1.826-.264-1.09-.885-1.924-1.816-2.535a4.2 4.2 0 0 0-1.566-.606 8.4 8.4 0 0 0-1.302-.124L17.01 2H6.99q-.19.014-.38.022c-.622.036-1.24.101-1.826.336-1.113.439-1.918 1.207-2.386 2.314-.163.374-.245.771-.303 1.175a8 8 0 0 0-.084.983c0 .026-.007.052-.007.078v10.186l.02.352c.042.68.13 1.354.417 1.979.54 1.182 1.448 1.96 2.695 2.334a5.3 5.3 0 0 0 1.078.189c.462.045.924.051 1.387.051h9.192q.655 0 1.309-.084c.687-.088 1.331-.29 1.914-.674a4.2 4.2 0 0 0 1.566-1.84c.156-.351.244-.725.31-1.103.094-.563.113-1.133.113-1.702-.003-3.165 0-6.328-.003-9.493zm-5.352 3.324v4.759c0 .348-.049.69-.205 1.005-.24.492-.631.801-1.156.951q-.436.125-.892.143a1.55 1.55 0 0 1-1.618-1.28 1.564 1.564 0 0 1 .866-1.685c.267-.13.557-.208.846-.267.316-.068.631-.13.944-.202a.515.515 0 0 0 .426-.43.7.7 0 0 0 .017-.16V8.726a.6.6 0 0 0-.023-.153c-.032-.127-.124-.202-.254-.196-.133.007-.264.03-.393.056q-.953.185-1.902.38l-3.082.622c-.013.004-.03.01-.043.01-.231.065-.312.17-.322.41-.003.036 0 .072 0 .108-.003 2.168 0 4.336-.003 6.504 0 .351-.04.697-.18 1.021-.23.534-.64.87-1.193 1.03a3.7 3.7 0 0 1-.9.142 1.534 1.534 0 0 1-1.597-1.285 1.56 1.56 0 0 1 .96-1.732c.299-.124.608-.192.924-.257l.716-.146c.319-.068.485-.27.502-.596V7.117q.001-.156.035-.31c.059-.237.228-.374.456-.43.212-.055.43-.094.644-.14.612-.123 1.22-.247 1.833-.368l1.89-.384 1.677-.335c.183-.036.368-.075.553-.088.257-.023.437.14.463.4q.01.093.01.186v4.776z"/></symbol><symbol viewBox="0 0 24 24" id="arrow-backward"><path fill="currentColor" d="M22 11.5v1a.5.5 0 0 1-.5.5H5.33l4.45 4.44a.5.5 0 0 1 0 .71l-.71.7a.5.5 0 0 1-.71 0l-6.14-6.13a.75.75 0 0 1-.22-.53v-.38a.77.77 0 0 1 .22-.53l6.14-6.13a.5.5 0 0 1 .71 0l.71.71a.49.49 0 0 1 0 .7L5.33 11H21.5a.5.5 0 0 1 .5.5"/></symbol><symbol viewBox="0 0 24 24" id="arrow-forward"><path fill="currentColor" d="M2 11.5v1a.5.5 0 0 0 .5.5h16.17l-4.45 4.44a.5.5 0 0 0 0 .71l.71.7a.5.5 0 0 0 .71 0l6.14-6.13a.75.75 0 0 0 .22-.53v-.38a.77.77 0 0 0-.22-.53l-6.14-6.13a.5.5 0 0 0-.71 0l-.71.71a.49.49 0 0 0 0 .7L18.67 11H2.5a.5.5 0 0 0-.5.5"/></symbol><symbol viewBox="0 0 24 24" id="b-corp"><path fill="currentColor" d="M9.503 7.844h2.48c.602 0 1.398 0 1.809.25.45.269.804.758.804 1.43 0 .73-.382 1.276-1.015 1.535v.02c.842.173 1.302.805 1.302 1.65 0 1.007-.72 1.967-2.078 1.967H9.503zm.91 2.945h1.82c1.034 0 1.456-.374 1.456-1.094 0-.95-.67-1.085-1.456-1.085h-1.82zm0 3.137h2.28c.784 0 1.282-.48 1.282-1.227 0-.893-.718-1.142-1.484-1.142h-2.078z"/><path fill="currentColor" d="M17.21 11.272a5.205 5.205 0 0 1-5.201 5.21 5.205 5.205 0 0 1-5.2-5.21 5.205 5.205 0 0 1 5.2-5.21 5.207 5.207 0 0 1 5.2 5.21m-5.2-6.004c-3.307 0-5.989 2.687-5.989 6.001s2.682 6.001 5.989 6.001A5.996 5.996 0 0 0 18 11.269a5.996 5.996 0 0 0-5.99-6.001m5.976 13.269H6.032v.787h11.954zm-.373-.867h.042a.1.1 0 0 0 .035-.008.1.1 0 0 0 .024-.021.1.1 0 0 0 .01-.039.1.1 0 0 0-.008-.034.04.04 0 0 0-.021-.018.1.1 0 0 0-.03-.01l-.034-.001h-.085v.133h.067zm.028-.186q.075 0 .11.03.037.03.037.09c0 .04-.011.065-.031.084a.15.15 0 0 1-.08.031l.12.184h-.07l-.114-.18h-.069v.18h-.065v-.418zm-.292.33q.02.056.061.098a.3.3 0 0 0 .094.064.3.3 0 0 0 .115.023.3.3 0 0 0 .115-.023.28.28 0 0 0 .154-.163.32.32 0 0 0-.06-.338.3.3 0 0 0-.209-.087.3.3 0 0 0-.209.087.32.32 0 0 0-.084.218.3.3 0 0 0 .023.12m-.06-.263a.35.35 0 0 1 .329-.214.36.36 0 0 1 .329.214q.029.065.028.142 0 .075-.028.142a.35.35 0 0 1-.33.216.34.34 0 0 1-.252-.102.35.35 0 0 1-.103-.256.3.3 0 0 1 .027-.142M7.482 2.63a.5.5 0 0 0-.417-.229.51.51 0 0 0-.454.229.7.7 0 0 0-.102.238 1.2 1.2 0 0 0-.032.276q0 .136.032.265a.7.7 0 0 0 .102.232.52.52 0 0 0 .454.228q.219 0 .34-.133a.62.62 0 0 0 .15-.352h.46a1.1 1.1 0 0 1-.094.367.86.86 0 0 1-.49.455q-.167.06-.366.06-.248 0-.447-.086a.95.95 0 0 1-.335-.239q-.135-.15-.209-.357a1.3 1.3 0 0 1-.073-.441q0-.243.073-.45t.209-.362a.95.95 0 0 1 .335-.243A1.1 1.1 0 0 1 7.065 2q.179 0 .337.051a.9.9 0 0 1 .284.15.82.82 0 0 1 .31.577h-.46a.4.4 0 0 0-.054-.149M8.634 3.84a.4.4 0 0 0 .278.095.4.4 0 0 0 .225-.065q.093-.065.115-.138h.379q-.09.282-.28.404a.8.8 0 0 1-.453.122.9.9 0 0 1-.333-.06.71.71 0 0 1-.41-.429 1 1 0 0 1-.057-.333.9.9 0 0 1 .057-.327.77.77 0 0 1 .417-.436.8.8 0 0 1 .326-.064q.199 0 .348.077.15.079.243.208a.9.9 0 0 1 .138.297q.043.166.03.35h-1.13q.01.204.107.3m.486-.824q-.078-.085-.235-.085a.34.34 0 0 0-.28.12.3.3 0 0 0-.057.11.5.5 0 0 0-.02.104h.7a.5.5 0 0 0-.108-.25m1.14-.368v.29h.006a.52.52 0 0 1 .2-.24.5.5 0 0 1 .3-.092q.043 0 .095.015v.4l-.074-.01q-.042-.005-.081-.005a.5.5 0 0 0-.2.04.34.34 0 0 0-.132.108.4.4 0 0 0-.07.16 1 1 0 0 0-.022.197v.707h-.429v-1.57zm1.75 0v.288h-.315v.778q0 .11.036.145.036.036.145.036l.07-.002.063-.01v.334q-.054.009-.122.013l-.13.003a1 1 0 0 1-.189-.013.4.4 0 0 1-.157-.054.3.3 0 0 1-.108-.112.4.4 0 0 1-.04-.191v-.925h-.26v-.289h.26v-.47h.43v.47zm.25-.243V2.05h.43v.355zm.43.243v1.568h-.43V2.648zm.171.288v-.288h.257v-.122q0-.21.13-.343.131-.134.394-.133.057 0 .115.005l.112.007v.322a1 1 0 0 0-.158-.008q-.087 0-.125.04-.037.042-.037.139v.094h.296v.289h-.296v1.28h-.43v-1.28h-.258zm1.275-.531V2.05h.43v.355zm.43.243v1.568h-.43V2.648zm.678 1.192a.4.4 0 0 0 .278.095.4.4 0 0 0 .225-.065q.093-.065.115-.138h.379q-.092.282-.278.404a.8.8 0 0 1-.455.122.9.9 0 0 1-.332-.06.71.71 0 0 1-.41-.429 1 1 0 0 1-.057-.333q0-.175.057-.327a.75.75 0 0 1 .417-.439.8.8 0 0 1 .325-.063q.2 0 .35.077.147.077.242.208.096.13.138.297.043.165.031.35h-1.13c.006.137.04.24.105.301m.486-.824q-.076-.085-.234-.085a.34.34 0 0 0-.28.12.3.3 0 0 0-.057.11.5.5 0 0 0-.02.104h.698a.5.5 0 0 0-.107-.25m1.843 1.002a.45.45 0 0 1-.198.184.7.7 0 0 1-.277.056.7.7 0 0 1-.31-.068.6.6 0 0 1-.219-.186.9.9 0 0 1-.13-.268 1.1 1.1 0 0 1 0-.62.8.8 0 0 1 .13-.26.64.64 0 0 1 .519-.249q.14 0 .264.06.127.059.199.173h.006v-.788h.43v2.166h-.409v-.2zm-.018-.776a.5.5 0 0 0-.062-.158.35.35 0 0 0-.115-.11.33.33 0 0 0-.175-.043q-.105 0-.178.042a.35.35 0 0 0-.117.112.5.5 0 0 0-.063.16.8.8 0 0 0 .001.368q.021.09.068.163.047.07.118.115.07.044.171.044.106 0 .178-.043a.3.3 0 0 0 .114-.114.5.5 0 0 0 .06-.162.9.9 0 0 0 0-.374M7.08 20.87c-.02-.152-.165-.267-.332-.267-.3 0-.413.256-.413.523 0 .254.113.51.413.51.205 0 .32-.14.345-.342h.325c-.034.38-.296.624-.67.624-.471 0-.748-.353-.748-.792 0-.453.277-.806.748-.806.335 0 .616.197.657.55zm1.037-.122c.347 0 .57.23.57.583 0 .351-.223.581-.57.581-.345 0-.57-.231-.57-.58 0-.353.225-.584.57-.584m0 .936c.207 0 .268-.177.268-.352 0-.177-.062-.354-.268-.354-.205 0-.267.178-.267.354 0 .175.062.352.267.352m.758-.907h.288v.205h.005a.39.39 0 0 1 .353-.235c.02 0 .047.004.065.01v.282a.6.6 0 0 0-.109-.01c-.222 0-.299.16-.299.355v.497h-.303zm.829.001h.288v.14h.004a.37.37 0 0 1 .328-.17c.346 0 .5.28.5.593 0 .295-.16.571-.483.571a.39.39 0 0 1-.33-.167h-.005v.526h-.303zm.818.556c0-.175-.07-.357-.264-.357-.199 0-.262.178-.262.357s.068.35.264.35c.199 0 .262-.171.262-.35m.967-.586c.347 0 .572.23.572.583 0 .351-.225.581-.572.581-.345 0-.569-.231-.569-.58 0-.353.224-.584.569-.584m0 .936c.207 0 .27-.177.27-.352 0-.177-.063-.354-.27-.354-.205 0-.267.178-.267.354.001.175.063.352.267.352m.759-.907h.288v.205h.005a.39.39 0 0 1 .351-.235.2.2 0 0 1 .066.01v.282a.6.6 0 0 0-.11-.01c-.221 0-.298.16-.298.355v.497h-.303zm.799.34c.018-.284.27-.369.52-.369.219 0 .483.049.483.313v.575c0 .1.01.2.039.246h-.308a.5.5 0 0 1-.021-.107.5.5 0 0 1-.371.137c-.209 0-.375-.104-.375-.33 0-.25.187-.31.375-.337.186-.027.358-.02.358-.145 0-.13-.09-.15-.196-.15-.115 0-.19.048-.2.167zm.7.226c-.053.044-.159.047-.253.064-.094.019-.178.051-.178.163s.086.14.186.14c.235 0 .245-.187.245-.253zm.913-.565h.223v.203h-.222v.547c0 .103.026.128.128.128a.5.5 0 0 0 .094-.009v.238c-.051.008-.118.01-.178.01-.184 0-.347-.043-.347-.262v-.651h-.184v-.203h.184v-.33h.303zm.754-.17h-.303v-.25h.303zm-.303.17h.303v1.104h-.303zm1.075-.03c.347 0 .572.23.572.583 0 .351-.225.581-.572.581-.345 0-.569-.231-.569-.58 0-.353.224-.584.569-.584m0 .936c.207 0 .27-.177.27-.352 0-.177-.063-.354-.27-.354-.205 0-.267.178-.267.354 0 .175.062.352.267.352m.767-.906h.288v.154h.006a.39.39 0 0 1 .337-.184c.322 0 .404.182.404.455v.68h-.303v-.625c0-.182-.054-.271-.194-.271-.165 0-.234.092-.234.317v.58h-.303z"/></symbol><symbol viewBox="0 0 24 24" id="bold"><path fill="currentColor" d="M16.5 10.9A4 4 0 0 0 17 9V8a4 4 0 0 0-4-4H7a1 1 0 0 0-1 1v13a1 1 0 0 0 1 1h7a4 4 0 0 0 4-4v-1a4 4 0 0 0-1.5-3.1M13 7a1 1 0 0 1 1 1v1a1 1 0 0 1-1 1H9V7zm2 8a1 1 0 0 1-1 1H9v-3h5a1 1 0 0 1 1 1z"/></symbol><symbol viewBox="0 0 24 24" id="bookmark"><path fill="currentColor" d="M19 20.098c0 .328-.172.63-.45.789a.86.86 0 0 1-.889-.024l-5.197-3.348a.86.86 0 0 0-.928 0L6.34 20.863a.85.85 0 0 1-.889.024.9.9 0 0 1-.45-.789V4.8C5 3.806 5.784 3 6.75 3h10.5c.966 0 1.75.806 1.75 1.8z"/></symbol><symbol viewBox="0 0 24 24" id="bookmark-outlined"><path fill="currentColor" d="M18 4v15.19l-4.41-2.75a3 3 0 0 0-3.18 0L6 19.19V4zm0-2H6a2 2 0 0 0-2 2v17a1 1 0 0 0 1.53.85l5.94-3.72a1 1 0 0 1 1.06 0l5.94 3.72A1 1 0 0 0 20 21V4a2 2 0 0 0-2-2"/></symbol><symbol viewBox="0 0 24 24" id="brush"><path fill="currentColor" d="m20.857 5.294-7.495 8.134a.5.5 0 0 1-.72 0l-2.088-2.086a.5.5 0 0 1 0-.719l8.144-7.485a.5.5 0 0 1 .69 0l1.439 1.437a.5.5 0 0 1 .03.719m-9.173 9.64L9.076 12.32a1.1 1.1 0 0 0-.59-.32 4 4 0 0 0-.49 0 4 4 0 0 0-2.828 1.168c-1.998 1.996-.47 4.182-2.088 6.587a.5.5 0 0 0 .06.629 2.9 2.9 0 0 0 1.779.599 7.76 7.76 0 0 0 5.905-2.156 4 4 0 0 0 1.17-2.835v-.489a1 1 0 0 0-.31-.569"/></symbol><symbol viewBox="0 0 24 24" id="camera"><path fill="currentColor" d="M21.5 7h-.09a1 1 0 0 0-.7.29L18 10V7a2 2 0 0 0-2-2H4a2 2 0 0 0-2 2v10a2 2 0 0 0 2 2h12a2 2 0 0 0 2-2v-3l2.71 2.71a1 1 0 0 0 .7.29h.09a.5.5 0 0 0 .5-.5v-9a.5.5 0 0 0-.5-.5m-16 3.88a.5.5 0 0 1-.5-.5v-.76a.5.5 0 0 1 .5-.5h4a.5.5 0 0 1 .5.5v.76a.5.5 0 0 1-.5.5z"/></symbol><symbol viewBox="0 0 24 24" id="canvas-graphics"><path fill="currentColor" d="M21.5 16H21V6a2 2 0 0 0-2-2h-6V2.5a.5.5 0 0 0-.5-.5h-1a.5.5 0 0 0-.5.5V4H5a2 2 0 0 0-2 2v10h-.5a.5.5 0 0 0-.5.5v1a.5.5 0 0 0 .5.5h4.81l-2.17 3.1a.76.76 0 0 0-.14.43v.22c0 .138.112.25.25.25h1.18a1 1 0 0 0 .82-.43L9.75 18h4.5l2.5 3.57a1 1 0 0 0 .82.43h1.18a.25.25 0 0 0 .25-.25v-.22a.76.76 0 0 0-.14-.43L16.69 18h4.81a.5.5 0 0 0 .5-.5v-1a.5.5 0 0 0-.5-.5m-2.5-.64a.64.64 0 0 1-.64.64.67.67 0 0 1-.5-.24l-3.67-4.57a.5.5 0 0 0-.78 0l-2.29 2.88a.5.5 0 0 1-.79 0l-1-1.36a.51.51 0 0 0-.81 0l-2.23 3a.75.75 0 0 1-.6.3.64.64 0 0 1-.69-.65V6h14zM9.5 11a1.5 1.5 0 1 0 0-3 1.5 1.5 0 0 0 0 3"/></symbol><symbol viewBox="0 0 24 24" id="canvas-text"><path fill="currentColor" d="M22 16.5a.5.5 0 0 0-.5-.5H21V6a2 2 0 0 0-2-2h-6V2.5a.5.5 0 0 0-.5-.5h-1a.5.5 0 0 0-.5.5V4H5a2 2 0 0 0-2 2v10h-.5a.5.5 0 0 0-.5.5v1a.5.5 0 0 0 .5.5h4.81l-2.17 3.1a.76.76 0 0 0-.14.43v.22c0 .138.112.25.25.25h1.18a1 1 0 0 0 .82-.43L9.75 18h4.5l2.5 3.57a1 1 0 0 0 .82.43h1.18a.25.25 0 0 0 .25-.25v-.22a.76.76 0 0 0-.14-.43L16.69 18h4.81a.5.5 0 0 0 .5-.5zm-3-.5H5V6h14zM7.5 14h5a.5.5 0 0 0 .5-.5v-1a.5.5 0 0 0-.5-.5h-5a.5.5 0 0 0-.5.5v1a.5.5 0 0 0 .5.5m0-4h9a.5.5 0 0 0 .5-.5v-1a.5.5 0 0 0-.5-.5h-9a.5.5 0 0 0-.5.5v1a.5.5 0 0 0 .5.5"/></symbol><symbol viewBox="0 0 24 24" id="chat-idea"><path fill="currentColor" d="M12 6.25a5.75 5.75 0 0 1 5.488 7.464 5.75 5.75 0 0 1-1.983 2.843 2.76 2.76 0 0 0-.763 2.333 1 1 0 0 1 .008.11 2.75 2.75 0 1 1-5.5 0q0-.056.008-.11a2.75 2.75 0 0 0-.764-2.333A5.75 5.75 0 0 1 12 6.25m-1.278 11.5c.073.422.084.853.029 1.28a1.25 1.25 0 0 0 2.497 0 4.3 4.3 0 0 1 .031-1.28zM12 7.75a4.25 4.25 0 0 0-2.682 7.547l.132.103.077.067c.24.236.449.5.624.783h3.698q.264-.428.624-.783a1 1 0 0 1 .077-.067A4.252 4.252 0 0 0 12 7.75m-8 3.5a.75.75 0 0 1 0 1.5H3a.75.75 0 0 1 0-1.5zm17 0a.75.75 0 0 1 0 1.5h-1a.75.75 0 0 1 0-1.5zM5.07 5.07a.75.75 0 0 1 1.003-.052l.058.052.7.7.05.056a.751.751 0 0 1-1.055 1.056l-.055-.05-.7-.701-.053-.058A.75.75 0 0 1 5.07 5.07m12.8 0a.75.75 0 1 1 1.06 1.06l-.7.701a.75.75 0 0 1-1.06-1.06zM12 2.25a.75.75 0 0 1 .75.75v1a.75.75 0 0 1-1.5 0V3a.75.75 0 0 1 .75-.75"/></symbol><symbol viewBox="0 0 24 24" id="chat-stop"><path fill="currentColor" d="M17 4H7a3 3 0 0 0-3 3v10a3 3 0 0 0 3 3h10a3 3 0 0 0 3-3V7a3 3 0 0 0-3-3"/></symbol><symbol viewBox="0 0 24 24" id="chat-submit"><path fill="currentColor" d="M12.5 22h-1a.5.5 0 0 1-.5-.5V5.33L6.56 9.78a.5.5 0 0 1-.71 0l-.7-.71a.5.5 0 0 1 0-.71l6.13-6.14a.75.75 0 0 1 .53-.22h.38a.77.77 0 0 1 .53.22l6.13 6.14a.5.5 0 0 1 0 .71l-.71.71a.49.49 0 0 1-.7 0L13 5.33V21.5a.5.5 0 0 1-.5.5"/></symbol><symbol viewBox="0 0 24 24" id="checkmark-circle"><path fill="currentColor" d="M12 2C6.477 2 2 6.477 2 12s4.477 10 10 10 10-4.477 10-10A10 10 0 0 0 12 2m4.35 7.73-5.62 5.62a.48.48 0 0 1-.7 0L7.65 13a.5.5 0 0 1 0-.71l.53-.53a.48.48 0 0 1 .7 0l1.5 1.49 4.74-4.74a.5.5 0 0 1 .7 0l.53.53a.5.5 0 0 1 0 .69"/></symbol><symbol viewBox="0 0 24 24" id="checkmark-circle-outlined"><path fill="currentColor" d="M12 2C6.477 2 2 6.477 2 12s4.477 10 10 10 10-4.477 10-10A10 10 0 0 0 12 2m0 18a8 8 0 1 1 0-16 8 8 0 0 1 0 16m3.82-11.51a.5.5 0 0 0-.7 0l-4.74 4.74-1.5-1.49a.48.48 0 0 0-.7 0l-.53.53a.5.5 0 0 0 0 .71L10 15.35a.48.48 0 0 0 .7 0l5.62-5.62a.5.5 0 0 0 0-.71z"/></symbol><symbol viewBox="0 0 24 24" id="chevron-down"><path fill="currentColor" d="M12.72 15.78a.75.75 0 0 1-.53.22h-.38a.77.77 0 0 1-.53-.22l-5.13-5.14a.5.5 0 0 1 0-.71l.71-.71a.49.49 0 0 1 .7 0L12 13.67l4.44-4.45a.5.5 0 0 1 .71 0l.7.71a.5.5 0 0 1 0 .71z"/></symbol><symbol viewBox="0 0 24 24" id="chevron-left"><path fill="currentColor" d="M8.22 12.72a.75.75 0 0 1-.22-.53v-.38a.77.77 0 0 1 .22-.53l5.14-5.13a.5.5 0 0 1 .71 0l.71.71a.49.49 0 0 1 0 .7L10.33 12l4.45 4.44a.5.5 0 0 1 0 .71l-.71.7a.5.5 0 0 1-.71 0z"/></symbol><symbol viewBox="0 0 24 24" id="chevron-right"><path fill="currentColor" d="M15.78 11.28c.14.14.22.331.22.53v.38a.77.77 0 0 1-.22.53l-5.14 5.13a.5.5 0 0 1-.71 0l-.71-.71a.49.49 0 0 1 0-.7L13.67 12 9.22 7.56a.5.5 0 0 1 0-.71l.71-.7a.5.5 0 0 1 .71 0z"/></symbol><symbol viewBox="0 0 24 24" id="chevron-up"><path fill="currentColor" d="M11.28 8.22a.75.75 0 0 1 .53-.22h.38a.77.77 0 0 1 .53.22l5.13 5.14a.5.5 0 0 1 0 .71l-.71.71a.49.49 0 0 1-.7 0L12 10.33l-4.44 4.45a.5.5 0 0 1-.71 0l-.7-.71a.5.5 0 0 1 0-.71z"/></symbol><symbol viewBox="0 0 24 24" id="claim-clear"><path fill="currentColor" d="M20.565 15.142a.497.497 0 0 1 .695 0l.496.526a.497.497 0 0 1 0 .705l-5.58 5.581a.477.477 0 0 1-.695 0l-2.334-2.353a.496.496 0 0 1 0-.705l.526-.527a.477.477 0 0 1 .695 0l1.49 1.48zM12.688 7.01l.851.228v.004l2.711.727c.186.05.296.24.246.426l-.423 1.576a.35.35 0 0 1-.425.246l-2.109-.565v5.04l.002.038a2.27 2.27 0 1 1-1.16-1.979V7.323c0-.198.108-.369.306-.312"/><path fill="currentColor" d="M12 2a10 10 0 0 1 10 10h-2a8 8 0 1 0-9 7.936v2.013C5.947 21.447 2 17.185 2 12 2 6.477 6.477 2 12 2"/></symbol><symbol viewBox="0 0 24 24" id="clear"><path fill="currentColor" d="M17.85 16.44a.5.5 0 0 1 0 .71l-.7.7a.5.5 0 0 1-.71 0L12 13.41l-4.44 4.44a.5.5 0 0 1-.71 0l-.7-.7a.5.5 0 0 1 0-.71L10.59 12 6.15 7.56a.5.5 0 0 1 0-.71l.7-.7a.5.5 0 0 1 .71 0L12 10.59l4.44-4.44a.5.5 0 0 1 .71 0l.7.7a.5.5 0 0 1 0 .71L13.41 12z"/></symbol><symbol viewBox="0 0 24 24" id="comment-text"><path fill="currentColor" d="M22 5a2 2 0 0 0-2-2H4a2 2 0 0 0-2 2v12a2 2 0 0 0 2 2h5.09a1 1 0 0 1 .7.29l1.49 1.49c.14.14.331.22.53.22h.38a.75.75 0 0 0 .53-.22l1.49-1.49a1 1 0 0 1 .7-.29H20a2 2 0 0 0 2-2zm-8 8.5a.5.5 0 0 1-.5.5h-7a.5.5 0 0 1-.5-.5v-1a.5.5 0 0 1 .5-.5h7a.5.5 0 0 1 .5.5zm4-4a.5.5 0 0 1-.5.5h-11a.5.5 0 0 1-.5-.5v-1a.5.5 0 0 1 .5-.5h11a.5.5 0 0 1 .5.5z"/></symbol><symbol viewBox="0 0 24 24" id="compass"><path fill="currentColor" d="M12.001 2c-5.523 0-10 4.477-10 10s4.477 10 10 10 10-4.478 10-10c0-2.653-.554-5.196-1.929-7.072C18.697 3.053 16.653 2 12.001 2m0 18a8 8 0 1 1 0-16 8 8 0 0 1 0 16m4.12-12.36a.49.49 0 0 0-.54-.11l-4.93 2a2 2 0 0 0-1.09 1.09l-2 4.93a.49.49 0 0 0 .11.54l.24.24a.49.49 0 0 0 .54.11l4.93-2a2 2 0 0 0 1.09-1.09l2-4.93a.49.49 0 0 0-.11-.54z"/></symbol><symbol viewBox="0 0 24 24" id="copy"><path fill="currentColor" d="M18 16V4a2 2 0 0 0-2-2H4a2 2 0 0 0-2 2v12a2 2 0 0 0 2 2h12a2 2 0 0 0 2-2M4 4h12v12H4zm16 2v12a2 2 0 0 1-2 2H6a2 2 0 0 0 2 2h10a4 4 0 0 0 4-4V8a2 2 0 0 0-2-2"/></symbol><symbol viewBox="0 0 24 24" id="credit-card"><path fill="currentColor" d="M22 6a2 2 0 0 0-2-2H4a2 2 0 0 0-2 2v12a2 2 0 0 0 2 2h16a2 2 0 0 0 2-2zM10 16.5a.5.5 0 0 1-.5.5h-3a.5.5 0 0 1-.5-.5v-1a.5.5 0 0 1 .5-.5h3a.5.5 0 0 1 .5.5zm10-5a.5.5 0 0 1-.5.5h-15a.5.5 0 0 1-.5-.5v-2a.5.5 0 0 1 .5-.5h15a.5.5 0 0 1 .5.5z"/></symbol><symbol viewBox="0 0 24 24" id="crop"><path fill="currentColor" d="M2.5 7a.5.5 0 0 1-.5-.5v-1a.5.5 0 0 1 .5-.5H5V2.5a.5.5 0 0 1 .5-.5h1a.5.5 0 0 1 .5.5V5h10a2 2 0 0 1 2 2v8h-2V7zm19 10H7V9H5v8a2 2 0 0 0 2 2h10v2.5a.5.5 0 0 0 .5.5h1a.5.5 0 0 0 .5-.5V19h2.5a.5.5 0 0 0 .5-.5v-1a.5.5 0 0 0-.5-.5"/></symbol><symbol viewBox="0 0 24 24" id="cube"><path fill="currentColor" d="m20.73 7.12-.14-.25a2.1 2.1 0 0 0-.74-.73l-6.71-3.87a2 2 0 0 0-1-.27h-.29a2 2 0 0 0-1 .27L4.14 6.15a2 2 0 0 0-.73.73l-.14.25a2 2 0 0 0-.27 1v7.75a2 2 0 0 0 .27 1l.14.25c.18.3.43.55.73.73l6.72 3.87c.302.18.648.273 1 .27h.28a2 2 0 0 0 1-.27l6.71-3.88a1.9 1.9 0 0 0 .73-.73l.15-.25a2.05 2.05 0 0 0 .27-1V8.12a2 2 0 0 0-.27-1M11.85 4h.29L18 7.38l-6 3.46-6-3.46zm7 12.12L13 19.5v-6.92l6-3.47v6.76z"/></symbol><symbol viewBox="0 0 24 24" id="dashboard-vs-outlined"><path fill="currentColor" d="M9 5v14H5V5zm1-2H4a1 1 0 0 0-1 1v16a1 1 0 0 0 1 1h6a1 1 0 0 0 1-1V4a1 1 0 0 0-1-1m9 2v2h-4V5zm1-2h-6a1 1 0 0 0-1 1v4a1 1 0 0 0 1 1h6a1 1 0 0 0 1-1V4a1 1 0 0 0-1-1m-1 10v6h-4v-6zm1-2h-6a1 1 0 0 0-1 1v8a1 1 0 0 0 1 1h6a1 1 0 0 0 1-1v-8a1 1 0 0 0-1-1"/></symbol><symbol viewBox="0 0 24 24" id="delete"><path fill="currentColor" d="M20 4.5v1a.5.5 0 0 1-.5.5h-15a.5.5 0 0 1-.5-.5v-1a.5.5 0 0 1 .5-.5H9V3a1 1 0 0 1 1-1h4a1 1 0 0 1 1 1v1h4.5a.5.5 0 0 1 .5.5M5.87 20.14a2 2 0 0 0 2 1.86h8.28a2 2 0 0 0 2-1.86L19 8H5z"/></symbol><symbol viewBox="0 0 24 24" id="document-text-outlined"><path fill="currentColor" d="M18 2H6a2 2 0 0 0-2 2v16a2 2 0 0 0 2 2h6.76a3 3 0 0 0 2.12-.88l4.24-4.24a3 3 0 0 0 .88-2.12V4a2 2 0 0 0-2-2m0 12h-5a1 1 0 0 0-1 1v5H6V4h12zM8.5 8h7a.5.5 0 0 0 .5-.5v-1a.5.5 0 0 0-.5-.5h-7a.5.5 0 0 0-.5.5v1a.5.5 0 0 0 .5.5m0 4h4a.5.5 0 0 0 .5-.5v-1a.5.5 0 0 0-.5-.5h-4a.5.5 0 0 0-.5.5v1a.5.5 0 0 0 .5.5"/></symbol><symbol viewBox="0 0 24 24" id="documents"><path fill="currentColor" d="m11.59 18.41 4.82-4.82a2 2 0 0 0 .59-1.42V3a2 2 0 0 0-2-2H4a2 2 0 0 0-2 2v14a2 2 0 0 0 2 2h6.17a2 2 0 0 0 1.42-.59M10 13a1 1 0 0 1 1-1h4.18L10 17.18zm9-8v14a2 2 0 0 1-2 2H6a2 2 0 0 0 2 2h9a4 4 0 0 0 4-4V7a2 2 0 0 0-2-2"/></symbol><symbol viewBox="0 0 24 24" id="done"><path fill="currentColor" d="m21.582 6.818-12.32 12.32a.58.58 0 0 1-.825 0l-6.265-6.265a.58.58 0 0 1 0-.825l.814-.814a.58.58 0 0 1 .825 0l5.033 5.033 11.1-11.1a.593.593 0 0 1 .825 0l.813.825a.58.58 0 0 1 0 .826"/></symbol><symbol viewBox="0 0 24 24" id="download-license"><path fill="currentColor" d="M17.999 2h-12a2 2 0 0 0-2 2v16a2 2 0 0 0 2 2h6.76a3 3 0 0 0 2.12-.88l4.24-4.24a3 3 0 0 0 .88-2.12V4a2 2 0 0 0-2-2m0 12h-5a1 1 0 0 0-1 1v5h-6V4h12zm-9.5-6h7a.5.5 0 0 0 .5-.5v-1a.5.5 0 0 0-.5-.5h-7a.5.5 0 0 0-.5.5v1a.5.5 0 0 0 .5.5m0 4h4a.5.5 0 0 0 .5-.5v-1a.5.5 0 0 0-.5-.5h-4a.5.5 0 0 0-.5.5v1a.5.5 0 0 0 .5.5"/></symbol><symbol viewBox="0 0 24 24" id="download-to"><path fill="currentColor" d="M19 18.5v1a.5.5 0 0 1-.5.5h-13a.5.5 0 0 1-.5-.5v-1a.5.5 0 0 1 .5-.5h13a.5.5 0 0 1 .5.5m-7.35-2.65a.48.48 0 0 0 .7 0l5.79-5.79a.5.5 0 0 0 0-.71l-.2-.2a.5.5 0 0 0-.36-.15H15V3.5a.5.5 0 0 0-.5-.5h-5a.5.5 0 0 0-.5.5V9H6.42a.5.5 0 0 0-.36.15l-.2.2a.5.5 0 0 0 0 .71z"/></symbol><symbol viewBox="0 0 24 24" id="edit"><path fill="currentColor" d="M16.82 9.986a.5.5 0 0 1 0 .698l-8.042 8.074a2 2 0 0 1-.679.45l-4.33 1.756a.5.5 0 0 1-.538-.11.5.5 0 0 1-.19-.619l1.716-4.331c.102-.255.254-.486.45-.679l8.05-8.053a.5.5 0 0 1 .709 0zm3.74-5.888-.658-.659c-.28-.28-.66-.439-1.057-.439h-.758a1.5 1.5 0 0 0-1.078.44l-1.806 1.825a.5.5 0 0 0 0 .699l2.804 2.844a.5.5 0 0 0 .708 0l1.846-1.816c.286-.285.444-.674.439-1.078v-.758a1.5 1.5 0 0 0-.44-1.058"/></symbol><symbol viewBox="0 0 24 24" id="email"><path fill="currentColor" d="M20 4H4a2 2 0 0 0-2 2v12a2 2 0 0 0 2 2h16a2 2 0 0 0 2-2V6a2 2 0 0 0-2-2m0 7-6.35 4.45a2.88 2.88 0 0 1-3.3 0L4 11V8.9l7.35 5.15c.39.271.91.271 1.3 0L20 8.9z"/></symbol><symbol viewBox="0 0 24 24" id="eraser"><path fill="currentColor" d="M20.5 19h-4.19l-2 2h6.19a.5.5 0 0 0 .5-.5v-1a.5.5 0 0 0-.5-.5m-.13-9.76-5.638-5.65a1.993 1.993 0 0 0-2.823 0l-7.981 8.05A3 3 0 0 0 3 13.76V16c0 .795.316 1.558.878 2.12l1.995 2a3 3 0 0 0 2.115.88h2.275a3 3 0 0 0 2.115-.88l8.031-8a2.003 2.003 0 0 0-.04-2.88m-9.449 9.47a1 1 0 0 1-.698.29H7.988a1 1 0 0 1-.698-.29l-1.995-2a1 1 0 0 1-.3-.71v-2.24a1 1 0 0 1 .29-.7L8.377 10l5.597 5.61z"/></symbol><symbol viewBox="0 0 24 24" id="error"><path fill="currentColor" d="M12 2C6.477 2 2 6.477 2 12s4.477 10 10 10 10-4.477 10-10A10 10 0 0 0 12 2m1 13.5a.5.5 0 0 1-.5.5h-1a.5.5 0 0 1-.5-.5v-1a.5.5 0 0 1 .5-.5h1a.5.5 0 0 1 .5.5zm-.22-3.72a.25.25 0 0 1-.25.22h-1.06a.25.25 0 0 1-.25-.22l-.4-3.22a.5.5 0 0 1 .5-.56h1.36a.5.5 0 0 1 .5.56z"/></symbol><symbol viewBox="0 0 24 24" id="everything-in-one-place"><path fill="currentColor" d="M5.383 12.036 1 16.42l3.57 3.78 2.416-2.31 7.402 1.233a1.56 1.56 0 0 0 1.357-.434l7.388-7.389a1.227 1.227 0 0 0-1.544-1.89l-5.36 3.544.288.144a.88.88 0 0 1 .481.89l-.184 1.617a1.26 1.26 0 0 1-1.572 1.076L9.86 15.27l.277-.846 4.459 1.2a1.246 1.246 0 0 0 .721-2.383l-6.183-2.084a3.65 3.65 0 0 0-3.75.88m3.723-1.845a.008.008 0 0 1-.012-.007V6.016c0-.006.007-.01.012-.007l3.61 2.085a.008.008 0 0 1 0 .014z"/><rect fill="currentColor" width="3.231" height="3.231" rx=".006" transform="rotate(180 17.209 10.885)" x="17.209" y="10.885"/><circle fill="currentColor" cx="13.44" cy="4.79" r="1.79"/></symbol><symbol viewBox="0 0 24 24" id="exit-fullscreen"><path fill="currentColor" d="M16 9h4.5a.5.5 0 0 0 .5-.5v-1a.5.5 0 0 0-.5-.5H17V3.5a.5.5 0 0 0-.5-.5h-1a.5.5 0 0 0-.5.5V8a1 1 0 0 0 1 1M9 8V3.5a.5.5 0 0 0-.5-.5h-1a.5.5 0 0 0-.5.5V7H3.5a.5.5 0 0 0-.5.5v1a.5.5 0 0 0 .5.5H8a1 1 0 0 0 1-1m8 12.5V17h3.5a.5.5 0 0 0 .5-.5v-1a.5.5 0 0 0-.5-.5H16a1 1 0 0 0-1 1v4.5a.5.5 0 0 0 .5.5h1a.5.5 0 0 0 .5-.5m-9.5.5h1a.5.5 0 0 0 .5-.5V16a1 1 0 0 0-1-1H3.5a.5.5 0 0 0-.5.5v1a.5.5 0 0 0 .5.5H7v3.5a.5.5 0 0 0 .5.5"/></symbol><symbol viewBox="0 0 24 24" id="facebook-square"><path fill="currentColor" d="M21 5v14a2 2 0 0 1-2 2h-3.75a.5.5 0 0 1-.5-.5v-6h2.34a.5.5 0 0 0 .49-.4l.36-1.8a.25.25 0 0 0-.24-.3h-2.95V8.75A.25.25 0 0 1 15 8.5h2.5A.5.5 0 0 0 18 8V6.5a.5.5 0 0 0-.5-.5H15a3 3 0 0 0-3 3v3h-1.23a.5.5 0 0 0-.5.5V14a.5.5 0 0 0 .5.5H12v6a.5.5 0 0 1-.5.5H5a2 2 0 0 1-2-2V5a2 2 0 0 1 2-2h14a2 2 0 0 1 2 2"/></symbol><symbol viewBox="0 0 24 24" id="feed-outlined"><path fill="currentColor" d="M21.5 6h-1a.5.5 0 0 0-.5.5V17a1 1 0 1 1-2 0V6a2 2 0 0 0-2-2H4a2 2 0 0 0-2 2v11a3 3 0 0 0 3 3h14a3 3 0 0 0 3-3V6.5a.5.5 0 0 0-.5-.5M5 18a1 1 0 0 1-1-1V6h12v11a3 3 0 0 0 .18 1zm8.5-10h-7a.5.5 0 0 0-.5.5v3a.5.5 0 0 0 .5.5h7a.5.5 0 0 0 .5-.5v-3a.5.5 0 0 0-.5-.5m0 6h-7a.5.5 0 0 0-.5.5v1a.5.5 0 0 0 .5.5h7a.5.5 0 0 0 .5-.5v-1a.5.5 0 0 0-.5-.5"/></symbol><symbol viewBox="0 0 24 24" id="file"><path fill="currentColor" d="M18 2h-6.76a3 3 0 0 0-2.12.88L4.88 7.12A3 3 0 0 0 4 9.24V20a2 2 0 0 0 2 2h12a2 2 0 0 0 2-2V4a2 2 0 0 0-2-2m0 18H6V10h5a1 1 0 0 0 1-1V4h6zm-3-4.62v-.76a.5.5 0 0 0-.5-.5h-1.62V12.5a.5.5 0 0 0-.5-.5h-.76a.5.5 0 0 0-.5.5v1.62H9.5a.5.5 0 0 0-.5.5v.76a.5.5 0 0 0 .5.5h1.62v1.62a.5.5 0 0 0 .5.5h.76a.5.5 0 0 0 .5-.5v-1.62h1.62a.5.5 0 0 0 .5-.5"/></symbol><symbol viewBox="0 0 24 24" id="file-add"><path fill="currentColor" d="M18 2h-7.17a2 2 0 0 0-1.42.59L4.59 7.41A2 2 0 0 0 4 8.83V20a2 2 0 0 0 2 2h12a2 2 0 0 0 2-2V4a2 2 0 0 0-2-2M5.82 9 11 3.82V8a1 1 0 0 1-1 1zm8.68 6.88h-1.62v1.62a.5.5 0 0 1-.5.5h-.76a.5.5 0 0 1-.5-.5v-1.62H9.5a.5.5 0 0 1-.5-.5v-.76a.5.5 0 0 1 .5-.5h1.62V12.5a.5.5 0 0 1 .5-.5h.76a.5.5 0 0 1 .5.5v1.62h1.62a.5.5 0 0 1 .5.5v.76a.5.5 0 0 1-.5.5"/></symbol><symbol viewBox="0 0 24 24" id="file-add-outlined"><path fill="currentColor" d="M18 2h-6.76a3 3 0 0 0-2.12.88L4.88 7.12A3 3 0 0 0 4 9.24V20a2 2 0 0 0 2 2h12a2 2 0 0 0 2-2V4a2 2 0 0 0-2-2m0 18H6V10h5a1 1 0 0 0 1-1V4h6zm-3-4.62v-.76a.5.5 0 0 0-.5-.5h-1.62V12.5a.5.5 0 0 0-.5-.5h-.76a.5.5 0 0 0-.5.5v1.62H9.5a.5.5 0 0 0-.5.5v.76a.5.5 0 0 0 .5.5h1.62v1.62a.5.5 0 0 0 .5.5h.76a.5.5 0 0 0 .5-.5v-1.62h1.62a.5.5 0 0 0 .5-.5"/></symbol><symbol viewBox="0 0 24 24" id="first-page"><path fill="currentColor" d="m17.78 17.15-.71.7a.5.5 0 0 1-.71 0l-5.14-5.13a.75.75 0 0 1-.22-.53v-.38a.77.77 0 0 1 .22-.53l5.14-5.13a.5.5 0 0 1 .71 0l.71.71a.49.49 0 0 1 0 .7L13.33 12l4.45 4.44a.5.5 0 0 1 0 .71M8.5 6h-1a.5.5 0 0 0-.5.5v11a.5.5 0 0 0 .5.5h1a.5.5 0 0 0 .5-.5v-11a.5.5 0 0 0-.5-.5"/></symbol><symbol viewBox="0 0 24 24" id="flag"><path fill="currentColor" d="M20 6.5v9a.5.5 0 0 1-.5.5H14a2 2 0 0 1-2-2H6v7.5a.5.5 0 0 1-.5.5h-1a.5.5 0 0 1-.5-.5v-19a.5.5 0 0 1 .5-.5h1a.5.5 0 0 1 .5.5V4h6a2 2 0 0 1 2 2h5.5a.5.5 0 0 1 .5.5"/></symbol><symbol viewBox="0 0 24 24" id="format-16-9"><path fill="currentColor" d="M21 8v8H3V8zm0-2H3a2 2 0 0 0-2 2v8a2 2 0 0 0 2 2h18a2 2 0 0 0 2-2V8a2 2 0 0 0-2-2"/></symbol><symbol viewBox="0 0 24 24" id="format-2-3"><path fill="currentColor" d="M17 20H7V4h10zm2 0V4a2 2 0 0 0-2-2H7a2 2 0 0 0-2 2v16a2 2 0 0 0 2 2h10a2 2 0 0 0 2-2"/></symbol><symbol viewBox="0 0 24 24" id="format-3-2"><path fill="currentColor" d="M20 7v10H4V7zm0-2H4a2 2 0 0 0-2 2v10a2 2 0 0 0 2 2h16a2 2 0 0 0 2-2V7a2 2 0 0 0-2-2"/></symbol><symbol viewBox="0 0 24 24" id="format-3-4"><path fill="currentColor" d="M6 4h12v16H6zM4 4v16a2 2 0 0 0 2 2h12a2 2 0 0 0 2-2V4a2 2 0 0 0-2-2H6a2 2 0 0 0-2 2"/></symbol><symbol viewBox="0 0 24 24" id="format-4-3"><path fill="currentColor" d="M20 6v12H4V6zm0-2H4a2 2 0 0 0-2 2v12a2 2 0 0 0 2 2h16a2 2 0 0 0 2-2V6a2 2 0 0 0-2-2"/></symbol><symbol viewBox="0 0 24 24" id="format-9-16"><path fill="currentColor" d="M16 21H8V3h8zm2 0V3a2 2 0 0 0-2-2H8a2 2 0 0 0-2 2v18a2 2 0 0 0 2 2h8a2 2 0 0 0 2-2"/></symbol><symbol viewBox="0 0 24 24" id="fullscreen"><path fill="currentColor" d="M19 3h-3.5a.5.5 0 0 0-.5.5v1a.5.5 0 0 0 .5.5H19v3.5a.5.5 0 0 0 .5.5h1a.5.5 0 0 0 .5-.5V5a2 2 0 0 0-2-2M3 5v3.5a.5.5 0 0 0 .5.5h1a.5.5 0 0 0 .5-.5V5h3.5a.5.5 0 0 0 .5-.5v-1a.5.5 0 0 0-.5-.5H5a2 2 0 0 0-2 2m16 10.5V19h-3.5a.5.5 0 0 0-.5.5v1a.5.5 0 0 0 .5.5H19a2 2 0 0 0 2-2v-3.5a.5.5 0 0 0-.5-.5h-1a.5.5 0 0 0-.5.5M4.5 15h-1a.5.5 0 0 0-.5.5V19a2 2 0 0 0 2 2h3.5a.5.5 0 0 0 .5-.5v-1a.5.5 0 0 0-.5-.5H5v-3.5a.5.5 0 0 0-.5-.5"/></symbol><symbol viewBox="0 0 24 24" id="globe"><path fill="currentColor" d="M12 3a9 9 0 1 0 0 18 9 9 0 0 0 0-18m6.92 8h-2.57a14.1 14.1 0 0 0-1.18-5.23A7 7 0 0 1 18.92 11m-6.47 8h-.9c-.91-.57-2-2.76-2.14-6h5.18c-.18 3.22-1.23 5.41-2.14 6m-3-8c.18-3.22 1.23-5.41 2.14-6h.86c.91.57 2 2.76 2.14 6zm-.62-5.23A14.1 14.1 0 0 0 7.65 11H5.08a7 7 0 0 1 3.75-5.23M5.08 13h2.57a14.1 14.1 0 0 0 1.18 5.23A7 7 0 0 1 5.08 13m10.09 5.23A14.1 14.1 0 0 0 16.35 13h2.57a7 7 0 0 1-3.75 5.23"/></symbol><symbol viewBox="0 0 24 24" id="graphics-gen"><path fill="var(--color-content-primary, currentcolor)" d="m5.828 2.36 10.034 6.394 1.026 5.975-1.225.21-.932-5.432L8.16 5.319l2.685 4.912-1.09.596-2.667-4.878.038 7.463 4.072 3.992-.87.887-4.442-4.355z"/><path fill="var(--color-content-primary, currentcolor)" d="m17.953 17.11.596 1.09-5.99 3.274-.596-1.09zm.044-.15-.92-1.682a.11.11 0 0 0-.149-.043l-5.99 3.275a.11.11 0 0 0-.044.148l.92 1.683a.11.11 0 0 0 .149.044l.595 1.09a1.35 1.35 0 0 1-1.835-.538l-.92-1.682a1.35 1.35 0 0 1 .538-1.835l5.99-3.276a1.35 1.35 0 0 1 1.836.538l.92 1.682.032.062c.31.644.065 1.426-.57 1.773l-.596-1.09a.11.11 0 0 0 .044-.149"/><path fill="var(--color-content-primary-accent, currentcolor)" fill-rule="evenodd" clip-rule="evenodd" d="M9.994 9.548a2.527 2.527 0 0 1 3.315 1.064l.06.116a2.53 2.53 0 0 1-1.065 3.315l-.116.059a2.527 2.527 0 0 1-3.249-.952l-.065-.113a2.527 2.527 0 0 1 1.005-3.43zm.533 1.246a1.175 1.175 0 1 0 1.128 2.062 1.175 1.175 0 0 0-1.128-2.062"/></symbol><symbol viewBox="0 0 24 24" id="group-add"><path fill="currentColor" d="M11.89 16.55A1 1 0 0 1 11 18H1a1 1 0 0 1-.89-1.45l1-1.9A3 3 0 0 1 3.74 13h4.52a3 3 0 0 1 2.68 1.65zM6 11a3 3 0 1 0 0-6 3 3 0 0 0 0 6m17.5-1H21V7.5a.5.5 0 0 0-.5-.5h-1a.5.5 0 0 0-.5.5V10h-2.5a.5.5 0 0 0-.5.5v1a.5.5 0 0 0 .5.5H19v2.5a.5.5 0 0 0 .5.5h1a.5.5 0 0 0 .5-.5V12h2.5a.5.5 0 0 0 .5-.5v-1a.5.5 0 0 0-.5-.5M11 11a3 3 0 1 0-.9-5.86 5 5 0 0 1 0 5.72 3 3 0 0 0 .9.14m4.94 3.65A3 3 0 0 0 13.26 13h-1q.275.357.48.76l.95 1.89a3 3 0 0 1 .13 2.35H16a1 1 0 0 0 .89-1.45z"/></symbol><symbol viewBox="0 0 24 24" id="group-senior"><path fill="currentColor" d="M14.004 9.5a2.5 2.5 0 1 1 5 0 2.5 2.5 0 0 1-5 0M9.002 11a3 3 0 1 0 0-6 3 3 0 0 0 0 6m5.452 3.66A3 3 0 0 0 11.763 13H6.24a3 3 0 0 0-2.69 1.66l-1.44 2.89A1 1 0 0 0 3 19h12.004a1 1 0 0 0 .89-1.45zm7.442 2.89-.95-1.9A3 3 0 0 0 18.265 14h-1.91l1.33 2.66a3 3 0 0 1 .15 2.34h3.17a1 1 0 0 0 .89-1.45"/></symbol><symbol viewBox="0 0 24 24" id="heart"><path fill="currentColor" d="M22 8.5A5.5 5.5 0 0 0 16.5 3 6.36 6.36 0 0 0 12 5.07 6.36 6.36 0 0 0 7.5 3 5.5 5.5 0 0 0 2 8.5c0 3.92 4.75 8.25 7 10.5l2.28 2.28c.14.14.331.22.53.22h.38a.75.75 0 0 0 .53-.22L15 19c2.25-2.25 7-6.58 7-10.5"/></symbol><symbol viewBox="0 0 24 24" id="heart-outlined"><path fill="currentColor" d="M16.5 3A6.36 6.36 0 0 0 12 5.07 6.36 6.36 0 0 0 7.5 3 5.5 5.5 0 0 0 2 8.5c0 3.92 4.75 8.25 7 10.5l2.28 2.28c.14.14.331.22.53.22h.38a.75.75 0 0 0 .53-.22L15 19c2.25-2.25 7-6.58 7-10.5A5.5 5.5 0 0 0 16.5 3m-2.3 14L12 19.17 9.8 17C7.77 15 4 11.26 4 8.5A3.5 3.5 0 0 1 7.5 5a5 5 0 0 1 3.71 2.21.77.77 0 0 0 .6.29h.45a.51.51 0 0 0 .4-.2A5.11 5.11 0 0 1 16.47 5 3.5 3.5 0 0 1 20 8.5c0 2.76-3.77 6.5-5.8 8.5"/></symbol><symbol viewBox="0 0 24 24" id="help"><path fill="currentColor" d="M12 2C6.477 2 2 6.477 2 12s4.477 10 10 10 10-4.477 10-10A10 10 0 0 0 12 2m1 15.5a.5.5 0 0 1-.5.5h-1a.5.5 0 0 1-.5-.5v-1a.5.5 0 0 1 .5-.5h1a.5.5 0 0 1 .5.5zm2.88-7.94a2.89 2.89 0 0 1-2 2.73l-.88.31a.13.13 0 0 0-.08.12v.78a.5.5 0 0 1-.5.5h-.76a.5.5 0 0 1-.5-.5v-.78a1.88 1.88 0 0 1 1.29-1.78l.95-.31a1.13 1.13 0 0 0 .76-1.07V9A1.12 1.12 0 0 0 13 7.88h-2A1.12 1.12 0 0 0 9.88 9v.5a.5.5 0 0 1-.5.5h-.76a.5.5 0 0 1-.5-.5V9A2.88 2.88 0 0 1 11 6.12h2A2.88 2.88 0 0 1 15.88 9z"/></symbol><symbol viewBox="0 0 24 24" id="home"><path fill="currentColor" d="M21 12.24V20a1 1 0 0 1-1 1h-4a1 1 0 0 1-1-1v-5.5a.5.5 0 0 0-.5-.5h-5a.5.5 0 0 0-.5.5V20a1 1 0 0 1-1 1H4a1 1 0 0 1-1-1v-7.76a3 3 0 0 1 .88-2.12l6.83-6.83a1 1 0 0 1 .7-.29h1.18a1 1 0 0 1 .7.29l6.83 6.83a3 3 0 0 1 .88 2.12"/></symbol><symbol viewBox="0 0 24 24" id="hot"><path fill="currentColor" d="M12.13 2.15A1 1 0 0 0 11.6 2h-.1a.5.5 0 0 0-.5.499v4.608a.499.499 0 0 1-.92.27A7.2 7.2 0 0 0 7.64 5.63a.47.47 0 0 0-.43 0 .49.49 0 0 0-.21.41c-.31 2.823-3 3.99-3 7.98C4 18.427 7.582 22 12 22s8-3.573 8-7.98c0-6.264-5.46-10.364-7.87-11.87M12 19.955c-2.21 0-4-1.786-4-3.99 0-2.693 2.72-4.25 3-5.765a.25.25 0 0 1 .28-.2A6.58 6.58 0 0 1 16 15.965c0 2.204-1.79 3.99-4 3.99"/></symbol><symbol viewBox="0 0 24 24" id="image"><path fill="currentColor" d="M6 7a2 2 0 1 1 4 0 2 2 0 0 1-4 0m15.8 9.73-6-8a.76.76 0 0 0-1.2 0l-4 5.17a.5.5 0 0 1-.78 0l-2.19-2.66a.75.75 0 0 0-1.17 0l-4.25 5.49a1 1 0 0 0-.21.61v.91a.76.76 0 0 0 .75.75h18.5a.76.76 0 0 0 .75-.75v-.92a1 1 0 0 0-.2-.6"/></symbol><symbol viewBox="0 0 24 24" id="image-edit"><path fill="var(--color-content-primary, currentcolor)" d="M8.5 6c.147-1.08-1-2-1.345-2.137l10.082 1.375a1.974 1.974 0 0 1 1.077 3.403l-7.786 7.23 9.125-1.755a1.974 1.974 0 1 1 .745 3.877L4.511 21.048a1.974 1.974 0 0 1-1.716-3.385l9.774-9.077-5.948-.81C7 7.5 8.353 7.08 8.5 6"/><path fill="var(--color-content-primary-accent, currentcolor)" fill-rule="evenodd" clip-rule="evenodd" d="M7.805 5.514a2.292 2.292 0 1 0-2.291 2.29v1.223l-.181-.005a3.514 3.514 0 0 1-3.328-3.328L2 5.514A3.514 3.514 0 0 1 5.514 2l.18.005a3.514 3.514 0 0 1 3.333 3.509l-.005.18a3.513 3.513 0 0 1-3.508 3.333V7.805a2.29 2.29 0 0 0 2.29-2.291"/></symbol><symbol viewBox="0 0 24 24" id="image-gen"><path fill="var(--color-content-primary-accent, currentcolor)" fill-rule="evenodd" clip-rule="evenodd" d="M8.957 7.044a1.74 1.74 0 1 0-1.74 1.739v1.304l-.156-.004A3.044 3.044 0 0 1 4.178 7.2l-.004-.156A3.044 3.044 0 0 1 7.218 4l.156.004a3.044 3.044 0 0 1 2.887 3.04l-.004.156a3.044 3.044 0 0 1-3.04 2.887V8.783a1.74 1.74 0 0 0 1.74-1.74"/><path fill="var(--color-content-primary, currentcolor)" d="M19.072 19.965v1.305H4.928v-1.305zm1.624-1.623v-5.013l-2.871-2.735-7.182 7.006-3.378-3.295-3.96 3.71v.327l.001.084c.044.857.753 1.54 1.622 1.54v1.304A2.93 2.93 0 0 1 2 18.342v-.893L7.284 12.5l3.359 3.277 7.171-6.996L22 12.77v5.57a2.93 2.93 0 0 1-2.928 2.929v-1.305c.869 0 1.578-.682 1.622-1.54z"/></symbol><symbol viewBox="0 0 24 24" id="image-small"><path fill="currentColor" d="M7.5 8.25a1.5 1.5 0 1 1 3 0 1.5 1.5 0 0 1-3 0m11.85 7.297-4.5-6a.57.57 0 0 0-.9 0l-3 3.878a.375.375 0 0 1-.585 0L8.722 11.43a.562.562 0 0 0-.877 0l-3.188 4.117a.75.75 0 0 0-.157.458v.683a.57.57 0 0 0 .563.562h13.875a.57.57 0 0 0 .562-.563v-.69a.75.75 0 0 0-.15-.45"/></symbol><symbol viewBox="0 0 24 24" id="info"><path fill="currentColor" d="M12 2C6.477 2 2 6.477 2 12s4.477 10 10 10 10-4.477 10-10A10 10 0 0 0 12 2m1 13.5a.5.5 0 0 1-.5.5h-1a.5.5 0 0 1-.5-.5v-3a.5.5 0 0 1 .5-.5h1a.5.5 0 0 1 .5.5zm0-6a.5.5 0 0 1-.5.5h-1a.5.5 0 0 1-.5-.5v-1a.5.5 0 0 1 .5-.5h1a.5.5 0 0 1 .5.5z"/></symbol><symbol viewBox="0 0 24 24" id="info-outlined"><path fill="currentColor" d="M12 2C6.477 2 2 6.477 2 12s4.477 10 10 10 10-4.477 10-10A10 10 0 0 0 12 2m0 18a8 8 0 1 1 0-16 8 8 0 0 1 0 16m1-7.5a.5.5 0 0 0-.5-.5h-1a.5.5 0 0 0-.5.5v3a.5.5 0 0 0 .5.5h1a.5.5 0 0 0 .5-.5zm0-4a.5.5 0 0 0-.5-.5h-1a.5.5 0 0 0-.5.5v1a.5.5 0 0 0 .5.5h1a.5.5 0 0 0 .5-.5z"/></symbol><symbol viewBox="0 0 24 24" id="instagram"><path fill="currentColor" d="M16 3H8a5 5 0 0 0-5 5v8a5 5 0 0 0 5 5h8a5 5 0 0 0 5-5V8a5 5 0 0 0-5-5m3.25 13A3.26 3.26 0 0 1 16 19.25H8A3.26 3.26 0 0 1 4.75 16V8A3.26 3.26 0 0 1 8 4.75h8A3.26 3.26 0 0 1 19.25 8zm-1.5-8.75a1 1 0 1 1-2 0 1 1 0 0 1 2 0M12 7.5a4.5 4.5 0 1 0 4.5 4.5A4.49 4.49 0 0 0 12 7.5m0 7.25a2.75 2.75 0 1 1 0-5.5 2.75 2.75 0 0 1 0 5.5"/></symbol><symbol viewBox="0 0 24 24" id="invisible"><path fill="currentColor" d="M21.988 11.7A10.64 10.64 0 0 0 11.994 5a10.64 10.64 0 0 0-9.934 6.67A1 1 0 0 0 2 12q0 .161.06.31A10.64 10.64 0 0 0 11.994 19a10.64 10.64 0 0 0 9.934-6.67.8.8 0 0 0 .06-.33q.024-.15 0-.3M11.994 17a8.81 8.81 0 0 1-7.925-5 8.784 8.784 0 0 1 15.85 0 8.81 8.81 0 0 1-7.925 5m0-7a2 2 0 1 1-.001 3.999 2 2 0 0 1 0-3.999Zm0-2a4 4 0 0 0-3.998 4 3.999 3.999 0 1 0 3.998-4"/></symbol><symbol viewBox="0 0 24 24" id="key"><path fill="currentColor" d="M20 3h-1.41a1 1 0 0 0-.7.29l-7.18 7.18A5.4 5.4 0 0 0 8.5 10a5.5 5.5 0 1 0 5.04 3.3l.88-.88a1 1 0 0 0 .29-.7V11c0-.199.08-.39.22-.53l.26-.26a.75.75 0 0 1 .53-.22h1.78a.5.5 0 0 0 .5-.5V7.73c0-.199.08-.39.22-.53h.05a.5.5 0 0 1 .36-.2h1.87a.5.5 0 0 0 .5-.5V4a1 1 0 0 0-1-1M7.44 18.56a2 2 0 1 1 0-4 2 2 0 0 1 0 4"/></symbol><symbol viewBox="0 0 24 24" id="keyframe-linear"><path fill="currentColor" d="M21 11.91v.18a1 1 0 0 1-.29.7l-7.92 7.92a1 1 0 0 1-.7.29h-.18a1 1 0 0 1-.7-.29l-7.92-7.92a1 1 0 0 1-.29-.7v-.18a1 1 0 0 1 .29-.7l7.92-7.92a1 1 0 0 1 .7-.29h.18a1 1 0 0 1 .7.29l7.92 7.92a1 1 0 0 1 .29.7"/></symbol><symbol viewBox="0 0 24 24" id="last-page"><path fill="currentColor" d="m6.22 6.85.71-.7a.5.5 0 0 1 .71 0l5.14 5.13c.14.14.22.331.22.53v.38a.77.77 0 0 1-.22.53l-5.14 5.13a.5.5 0 0 1-.71 0l-.71-.71a.49.49 0 0 1 0-.7L10.67 12 6.22 7.56a.5.5 0 0 1 0-.71M15.5 18h1a.5.5 0 0 0 .5-.5v-11a.5.5 0 0 0-.5-.5h-1a.5.5 0 0 0-.5.5v11a.5.5 0 0 0 .5.5"/></symbol><symbol viewBox="0 0 24 24" id="lifetime-commercial-license"><path fill="currentColor" fill-rule="evenodd" clip-rule="evenodd" d="M19.694 11.076a2.56 2.56 0 0 0 0 1.856l.136.392a2.615 2.615 0 0 1-1.368 3.32l-.36.16a2.65 2.65 0 0 0-1.345 1.295l-.16.36a2.617 2.617 0 0 1-3.32 1.368l-.368-.136a2.56 2.56 0 0 0-1.856 0l-.369.136a2.617 2.617 0 0 1-3.32-1.368l-.16-.36a2.65 2.65 0 0 0-1.296-1.344l-.36-.16a2.615 2.615 0 0 1-1.368-3.32l.136-.367a2.56 2.56 0 0 0 0-1.856l-.136-.368a2.615 2.615 0 0 1 1.368-3.32l.36-.16A2.65 2.65 0 0 0 7.204 5.91l.184-.36a2.617 2.617 0 0 1 3.345-1.368l.368.136a2.56 2.56 0 0 0 1.856 0l.368-.136a2.617 2.617 0 0 1 3.32 1.368l.16.36a2.65 2.65 0 0 0 1.297 1.296l.36.184a2.615 2.615 0 0 1 1.368 3.32zm-8.706 3.607 4.497-4.495a.4.4 0 0 0 0-.552l-.424-.424a.4.4 0 0 0-.56 0l-3.793 3.792-1.2-1.192a.384.384 0 0 0-.56 0l-.424.424a.4.4 0 0 0 0 .568l1.904 1.88a.384.384 0 0 0 .56 0"/></symbol><symbol viewBox="0 0 24 24" id="link"><path fill="currentColor" d="m8.65 13.94 5.29-5.29a.5.5 0 0 1 .71 0l.7.7a.5.5 0 0 1 0 .71l-5.29 5.29a.5.5 0 0 1-.71 0l-.7-.7a.5.5 0 0 1 0-.71M21 7.66V8a4 4 0 0 1-1.18 2.84L17 13.67a1.35 1.35 0 0 1-1.9 0l-.1-.11a.5.5 0 0 1 0-.7l3.44-3.44A2 2 0 0 0 19 8v-.34a2 2 0 0 0-.59-1.42l-.65-.65A2 2 0 0 0 16.34 5H16a2 2 0 0 0-1.42.59L11.14 9a.5.5 0 0 1-.7 0l-.11-.11a1.35 1.35 0 0 1 0-1.9l2.83-2.84A4 4 0 0 1 16 3h.34a4 4 0 0 1 2.83 1.17l.66.66A4 4 0 0 1 21 7.66M12.86 15a.5.5 0 0 1 .7 0l.11.11a1.35 1.35 0 0 1 0 1.9l-2.85 2.85A4 4 0 0 1 8 21h-.34a4 4 0 0 1-2.83-1.17l-.66-.66A4 4 0 0 1 3 16.35V16a4 4 0 0 1 1.18-2.84L7 10.33a1.35 1.35 0 0 1 1.9 0l.11.11a.5.5 0 0 1 0 .7l-3.42 3.44A2 2 0 0 0 5 16v.34a2 2 0 0 0 .59 1.42l.65.65a2 2 0 0 0 1.42.59H8a2 2 0 0 0 1.43-.59z"/></symbol><symbol viewBox="0 0 24 24" id="linkedin-square"><path fill="currentColor" d="M19 3H5a2 2 0 0 0-2 2v14a2 2 0 0 0 2 2h14a2 2 0 0 0 2-2V5a2 2 0 0 0-2-2M8.5 17.5a.5.5 0 0 1-.5.5H6.5a.5.5 0 0 1-.5-.5v-7a.5.5 0 0 1 .5-.5H8a.5.5 0 0 1 .5.5zM7.25 9a1.5 1.5 0 1 1 0-3 1.5 1.5 0 0 1 0 3M18 17.5a.5.5 0 0 1-.5.5H16a.5.5 0 0 1-.5-.5v-3.75a1.5 1.5 0 0 0-3 0v3.75a.5.5 0 0 1-.5.5h-1.5a.5.5 0 0 1-.5-.5v-7a.5.5 0 0 1 .5-.5H12a.5.5 0 0 1 .5.5v.6a3 3 0 0 1 2.78-1.34A3.1 3.1 0 0 1 18 12.9z"/></symbol><symbol viewBox="0 0 24 24" id="links"><path fill="currentColor" d="M21 14.5V19a2 2 0 0 1-2 2H5a2 2 0 0 1-2-2V5a2 2 0 0 1 2-2h4.5a.5.5 0 0 1 .5.5v1a.5.5 0 0 1-.5.5H5v14h14v-4.5a.5.5 0 0 1 .5-.5h1a.5.5 0 0 1 .5.5m-.22-11-.27-.27A.75.75 0 0 0 20 3h-6.5a.5.5 0 0 0-.5.5v1a.5.5 0 0 0 .5.5h4.09l-8.44 8.44a.5.5 0 0 0 0 .71l.7.7a.5.5 0 0 0 .71 0L19 6.42v4.08a.5.5 0 0 0 .5.5h1a.5.5 0 0 0 .5-.5V4a.75.75 0 0 0-.22-.51z"/></symbol><symbol viewBox="0 0 24 24" id="lock"><path fill="currentColor" d="M18 10V8A6 6 0 0 0 6 8v2a2 2 0 0 0-2 2v8a2 2 0 0 0 2 2h12a2 2 0 0 0 2-2v-8a2 2 0 0 0-2-2M8 8a4 4 0 1 1 8 0v2H8zm6 9a1 1 0 0 1-1 1h-2a1 1 0 0 1-1-1v-2a1 1 0 0 1 1-1h2a1 1 0 0 1 1 1z"/></symbol><symbol viewBox="0 0 24 24" id="looks-like-search"><path fill="currentColor" d="M8.536 9.143a1.143 1.143 0 1 1 2.285 0 1.143 1.143 0 0 1-2.285 0m9.028 5.56-3.428-4.572a.434.434 0 0 0-.686 0l-2.286 2.955a.286.286 0 0 1-.445 0l-1.252-1.52a.43.43 0 0 0-.668 0L6.37 14.703a.57.57 0 0 0-.12.348v.52a.434.434 0 0 0 .429.429H17.25a.434.434 0 0 0 .429-.429v-.525a.57.57 0 0 0-.115-.343"/><path fill="currentColor" fill-rule="evenodd" clip-rule="evenodd" d="M2 5a3 3 0 0 1 3-3h4v2H5a1 1 0 0 0-1 1v14a1 1 0 0 0 1 1h4v2H5a3 3 0 0 1-3-3zm20 0a3 3 0 0 0-3-3h-4v2h4a1 1 0 0 1 1 1v14a1 1 0 0 1-1 1h-4v2h4a3 3 0 0 0 3-3z"/></symbol><symbol viewBox="0 0 24 24" id="loop"><path fill="currentColor" d="M5.5 17.5q-2.3 0-3.9-1.6T0 12t1.6-3.9 3.9-1.6q.925 0 1.775.325A4.9 4.9 0 0 1 8.8 7.75l1.7 1.55L9 10.65l-1.55-1.4a3.1 3.1 0 0 0-.9-.55 2.8 2.8 0 0 0-1.05-.2q-1.45 0-2.475 1.025A3.37 3.37 0 0 0 2 12q0 1.45 1.025 2.475A3.37 3.37 0 0 0 5.5 15.5q.55 0 1.05-.2a3.1 3.1 0 0 0 .9-.55l7.75-7q.675-.6 1.525-.925A4.9 4.9 0 0 1 18.5 6.5q2.3 0 3.9 1.6T24 12t-1.6 3.9-3.9 1.6a4.9 4.9 0 0 1-1.775-.325 4.9 4.9 0 0 1-1.525-.925l-1.7-1.55 1.5-1.35 1.55 1.4q.4.35.9.55t1.05.2q1.45 0 2.475-1.025A3.37 3.37 0 0 0 22 12q0-1.45-1.025-2.475A3.37 3.37 0 0 0 18.5 8.5a2.8 2.8 0 0 0-1.05.2 3.1 3.1 0 0 0-.9.55l-7.75 7q-.675.6-1.525.925A4.9 4.9 0 0 1 5.5 17.5"/></symbol><symbol viewBox="0 0 24 24" id="map-zoom-out"><path fill="currentColor" d="M9.85 8.44a.5.5 0 0 1 0 .71l-.7.7a.5.5 0 0 1-.71 0L5.28 6.68 3.86 8.1A.5.5 0 0 1 3 7.75V3.5a.52.52 0 0 1 .5-.5h4.25a.5.5 0 0 1 .36.85L6.69 5.27zm-.7 5.71a.5.5 0 0 0-.71 0l-3.17 3.16-1.42-1.42a.5.5 0 0 0-.85.36v4.25a.52.52 0 0 0 .5.5h4.25a.5.5 0 0 0 .35-.85l-1.42-1.43 3.17-3.16a.5.5 0 0 0 0-.71zm11 1.75-1.42 1.42-3.16-3.17a.5.5 0 0 0-.71 0l-.7.7a.5.5 0 0 0 0 .71l3.16 3.17-1.42 1.42a.5.5 0 0 0 .36.85h4.24a.52.52 0 0 0 .5-.5v-4.25a.5.5 0 0 0-.86-.35zM20.5 3h-4.25a.5.5 0 0 0-.35.85l1.42 1.42-3.17 3.17a.5.5 0 0 0 0 .71l.7.7a.5.5 0 0 0 .71 0l3.17-3.16 1.42 1.42a.5.5 0 0 0 .85-.36V3.5a.52.52 0 0 0-.5-.5"/></symbol><symbol viewBox="0 0 24 24" id="menu-hamburger"><path fill="currentColor" d="M20.5 7h-17a.5.5 0 0 1-.5-.5v-1a.5.5 0 0 1 .5-.5h17a.5.5 0 0 1 .5.5v1a.5.5 0 0 1-.5.5m.5 5.5v-1a.5.5 0 0 0-.5-.5h-17a.5.5 0 0 0-.5.5v1a.5.5 0 0 0 .5.5h17a.5.5 0 0 0 .5-.5m0 6v-1a.5.5 0 0 0-.5-.5h-17a.5.5 0 0 0-.5.5v1a.5.5 0 0 0 .5.5h17a.5.5 0 0 0 .5-.5"/></symbol><symbol viewBox="0 0 24 24" id="microphone"><path fill="currentColor" d="M21 8a5 5 0 0 1-4.25 4.94 1 1 0 0 1-.85-.28L11.34 8.1a1 1 0 0 1-.28-.85A5 5 0 0 1 21 8m-7.25 5.08a.51.51 0 0 1 0 .71l-2.5 2.49c-.454.46-.981.842-1.56 1.13l-1.63.81a.5.5 0 0 1-.58-.09l-.1-.1-2.82 2.82a.5.5 0 0 1-.71 0l-.7-.7a.5.5 0 0 1 0-.71L6 16.62l-.1-.1a.5.5 0 0 1-.09-.58l.81-1.63c.287-.58.67-1.107 1.13-1.56l2.49-2.5a.51.51 0 0 1 .71 0zm-2.9.77-.7-.7a.5.5 0 0 0-.71 0l-.71.7a.51.51 0 0 0 0 .71l.71.71a.51.51 0 0 0 .71 0l.7-.71a.5.5 0 0 0 0-.71"/></symbol><symbol viewBox="0 0 24 24" id="microphone-outlined"><path fill="currentColor" d="M15.436 12.075a.64.64 0 0 1 0 .888l-3.126 3.114a7.3 7.3 0 0 1-1.95 1.412l-2.04 1.013a.625.625 0 0 1-.725-.112l-.125-.125-3.526 3.526a.624.624 0 0 1-.888 0l-.875-.876a.625.625 0 0 1 0-.887l3.564-3.526-.125-.125a.625.625 0 0 1-.113-.726l1.013-2.038a7.3 7.3 0 0 1 1.413-1.95l3.113-3.126a.64.64 0 0 1 .888 0L13 11zm-3.626.963-.875-.875a.627.627 0 0 0-.888 0l-.888.875a.64.64 0 0 0 0 .888l.888.888a.64.64 0 0 0 .888 0l.875-.888a.627.627 0 0 0 0-.888"/><path fill="currentColor" d="M20.004 7.627a3.627 3.627 0 1 0-3.627 3.627v2l-.29-.008a5.63 5.63 0 0 1-5.33-5.33l-.007-.289A5.627 5.627 0 0 1 16.377 2l.289.007a5.63 5.63 0 0 1 5.338 5.62l-.008.289a5.627 5.627 0 0 1-5.62 5.338v-2a3.627 3.627 0 0 0 3.628-3.627"/></symbol><symbol viewBox="0 0 24 24" id="mockup-gen"><path fill="var(--color-content-primary, currentcolor)" d="M20.343 5.051a.795.795 0 0 0-.794-.794H17.23a5.088 5.088 0 0 1-9.86 0H5.052a.794.794 0 0 0-.794.794v5.308h3.556v9.984h9.385V10.36h3.145zm1.258 6.565h-3.146V21.6h-11.9v-9.985H3V5.05A2.05 2.05 0 0 1 5.051 3h3.42a3.83 3.83 0 1 0 7.659 0h3.419c1.133 0 2.052.918 2.052 2.051z"/><path fill="var(--color-content-primary-accent, currentcolor)" fill-rule="evenodd" clip-rule="evenodd" d="m20.898 18.398-5.159.538L13.008 23 11.87 12.303zm-7.12 1.495 1.34-1.992 2.675-.28-4.585-3.095z"/></symbol><symbol viewBox="0 0 24 24" id="moon"><path fill="currentColor" d="M22 14.748a10.22 10.22 0 0 1-10.78 7.203 10.214 10.214 0 0 1-9.17-9.162 10.21 10.21 0 0 1 7.209-10.77.54.54 0 0 1 .51.13l.09.09a.55.55 0 0 1 .15.42 10.18 10.18 0 0 0 2.895 8.438 10.2 10.2 0 0 0 8.435 2.921.55.55 0 0 1 .42.15l.09.09a.54.54 0 0 1 .131.51z"/></symbol><symbol viewBox="0 0 24 24" id="more"><path fill="currentColor" d="M18 10a2 2 0 1 1 0 4 2 2 0 0 1 0-4m-4 2a2 2 0 1 0-4 0 2 2 0 0 0 4 0m-6 0a2 2 0 1 0-4 0 2 2 0 0 0 4 0"/></symbol><symbol viewBox="0 0 24 24" id="music"><path fill="currentColor" d="M18 10.237v1.26a.5.5 0 0 1-.5.5h-1a.5.5 0 0 1-.5-.5v-.27a2.71 2.71 0 0 0-1.5-2.36c-.18-.1-.34-.22-.5-.33v8.997a3.78 3.78 0 0 1-4 3.459 3.78 3.78 0 0 1-4-3.499 3.78 3.78 0 0 1 4-3.498 4.3 4.3 0 0 1 2 .49V3.5a.5.5 0 0 1 .5-.5h1a.5.5 0 0 1 .5.5v.17a2.67 2.67 0 0 0 1.43 2.419A4.62 4.62 0 0 1 18 10.237"/></symbol><symbol viewBox="0 0 24 24" id="music-gen"><path fill="var(--color-content-primary, currentcolor)" fill-rule="evenodd" clip-rule="evenodd" d="M8.554 18.738c0-.718-.847-1.782-2.537-1.782-1.691 0-2.537 1.06-2.537 1.782 0 .718.847 1.781 2.537 1.781 1.691 0 2.537-1.06 2.537-1.781m1.48 0c0 1.795-1.79 3.262-4.017 3.262S2 20.527 2 18.738c0-1.795 1.79-3.262 4.017-3.262s4.017 1.473 4.017 3.262m9.91-1.91c0-.718-.847-1.782-2.537-1.782s-2.537 1.06-2.537 1.782c0 .718.847 1.781 2.537 1.781 1.691 0 2.537-1.06 2.537-1.781m1.48 0c0 1.795-1.79 3.262-4.017 3.262s-4.017-1.473-4.017-3.262c0-1.795 1.79-3.262 4.017-3.262 2.229 0 4.017 1.473 4.017 3.262"/><path fill="var(--color-content-primary-accent, currentcolor)" d="M20.431 7.608 9.426 10.312l-.353-1.438L20.078 6.17z"/><path fill="var(--color-content-primary, currentcolor)" d="M21.424 16.942h-1.48V3.762l-9.91 1.74v13.187h-1.48V4.259L21.424 2z"/></symbol><symbol viewBox="0 0 24 24" id="none"/><symbol viewBox="0 0 24 24" id="notifications"><path fill="currentColor" d="M10 20h4a2 2 0 1 1-4 0m9.71-4.29-.83-.83a3 3 0 0 1-.88-2.12V10a6 6 0 0 0-1.2-3.6l-.9-1.2A3 3 0 0 0 13.5 4H13V2.5a.5.5 0 0 0-.5-.5h-1a.5.5 0 0 0-.5.5V4h-.5a3 3 0 0 0-2.4 1.2l-.9 1.2A6 6 0 0 0 6 10v2.76a3 3 0 0 1-.88 2.12l-.83.83a1 1 0 0 0-.29.7V17a1 1 0 0 0 1 1h14a1 1 0 0 0 1-1v-.59a1 1 0 0 0-.29-.7"/></symbol><symbol viewBox="0 0 24 24" id="opacity"><path fill="currentColor" d="M12 21q-3.325 0-5.662-2.3Q4 16.4 4 13.1q0-1.625.625-3.037A8.2 8.2 0 0 1 6.35 7.55L12 2l5.65 5.55a8.2 8.2 0 0 1 1.725 2.513Q20 11.474 20 13.1q0 3.3-2.337 5.6T12 21m-5.95-7H17.9q.3-1.8-.337-3.075Q16.925 9.65 16.25 9L12 4.8 7.75 9q-.675.65-1.325 1.925T6.05 14"/></symbol><symbol viewBox="0 0 24 24" id="open-in-new"><path fill="currentColor" d="M21 14.5V19a2 2 0 0 1-2 2H5a2 2 0 0 1-2-2V5a2 2 0 0 1 2-2h4.5a.5.5 0 0 1 .5.5v1a.5.5 0 0 1-.5.5H5v14h14v-4.5a.5.5 0 0 1 .5-.5h1a.5.5 0 0 1 .5.5m-.22-11-.27-.27A.75.75 0 0 0 20 3h-6.5a.5.5 0 0 0-.5.5v1a.5.5 0 0 0 .5.5h4.09l-8.44 8.44a.5.5 0 0 0 0 .71l.7.7a.5.5 0 0 0 .71 0L19 6.42v4.08a.5.5 0 0 0 .5.5h1a.5.5 0 0 0 .5-.5V4a.75.75 0 0 0-.22-.51z"/></symbol><symbol viewBox="0 0 24 24" id="pages"><path fill="currentColor" d="M14.75 3.75H5.583c-1.012 0-1.833.82-1.833 1.833v12.834c0 1.012.82 1.833 1.833 1.833h9.167c1.012 0 1.833-.82 1.833-1.833V5.583c0-1.012-.82-1.833-1.833-1.833m5.5 2.75v11c0 .506-.41.917-.917.917h-.916V5.583h.916c.507 0 .917.41.917.917"/></symbol><symbol viewBox="0 0 24 24" id="palette"><path fill="currentColor" d="m19.36 5.36-1.65-1.65A2.4 2.4 0 0 0 16 3a2 2 0 0 0-2 2v1.59a1 1 0 0 1-1.71.7l-.12-.12A4 4 0 0 0 9.34 6H8a6 6 0 0 0-6 6v1a8 8 0 0 0 8 8h4a8 8 0 0 0 8-8v-1.27a9 9 0 0 0-2.64-6.37M6.5 14a1.5 1.5 0 1 1 0-3 1.5 1.5 0 0 1 0 3m3 4a1.5 1.5 0 1 1 0-3 1.5 1.5 0 0 1 0 3m5 0a1.5 1.5 0 1 1 0-3 1.5 1.5 0 0 1 0 3m3-4a1.5 1.5 0 1 1 0-3 1.5 1.5 0 0 1 0 3"/></symbol><symbol viewBox="0 0 24 24" id="panorama"><path fill="currentColor" d="M7 6.688v10.604a1 1 0 0 1-.8.999l-.27.06-2.5.549a3.7 3.7 0 0 1-.87.1H2a1 1 0 0 1-1-1V6a1 1 0 0 1 1-1h.56q.441-.002.87.1l2.5.55.27.059c.466.095.8.504.8.979M22 5h-.56a3.7 3.7 0 0 0-.87.1l-2.5.55-.27.059a1 1 0 0 0-.8.999v10.584a1 1 0 0 0 .8.999l.28.06 2.49.549q.429.102.87.1H22a1 1 0 0 0 1-1V6a1 1 0 0 0-1-1m-8.07 1.248c-.64 0-1.29.07-1.93.07s-1.29 0-1.93-.07a1 1 0 0 0-.75.27 1 1 0 0 0-.32.729v9.486a1 1 0 0 0 .32.73 1 1 0 0 0 .75.269c.64 0 1.29-.07 1.93-.07s1.29 0 1.93.07a1 1 0 0 0 .75-.27 1 1 0 0 0 .32-.729V7.247a1 1 0 0 0-.32-.73 1 1 0 0 0-.75-.269"/></symbol><symbol viewBox="0 0 24 24" id="pause"><path fill="currentColor" d="M10 6.75v10.5a.76.76 0 0 1-.75.75h-1.5a.76.76 0 0 1-.75-.75V6.75A.76.76 0 0 1 7.75 6h1.5a.76.76 0 0 1 .75.75M16.25 6h-1.5a.76.76 0 0 0-.75.75v10.5a.76.76 0 0 0 .75.75h1.5a.76.76 0 0 0 .75-.75V6.75a.76.76 0 0 0-.75-.75"/></symbol><symbol viewBox="0 0 24 24" id="photo-camera"><path fill="currentColor" d="M22 9a2 2 0 0 0-2-2h-1.17a2 2 0 0 1-1.42-.59l-1.53-1.53A3 3 0 0 0 13.76 4h-3.52a3 3 0 0 0-2.12.88L6.59 6.41A2 2 0 0 1 5.17 7H4a2 2 0 0 0-2 2v9a2 2 0 0 0 2 2h16a2 2 0 0 0 2-2zm-10 8a4 4 0 1 1 0-8 4 4 0 0 1 0 8"/></symbol><symbol viewBox="0 0 24 24" id="photo-gallery-outlined"><path fill="currentColor" d="M7.5 6a1.5 1.5 0 1 0 0 3 1.5 1.5 0 0 0 0-3M17 1H3a2 2 0 0 0-2 2v14a2 2 0 0 0 2 2h14a2 2 0 0 0 2-2V3a2 2 0 0 0-2-2m0 13.82a.5.5 0 0 1-.89.32l-4-5a.49.49 0 0 0-.39-.19.48.48 0 0 0-.39.19l-2.25 2.93a.48.48 0 0 1-.39.19.51.51 0 0 1-.4-.2l-1-1.36a.54.54 0 0 0-.41-.2.51.51 0 0 0-.4.2L3.9 15.13a.48.48 0 0 1-.4.2.49.49 0 0 1-.5-.5V3h14zM7.5 9a1.5 1.5 0 1 0 0-3 1.5 1.5 0 0 0 0 3m0-3a1.5 1.5 0 1 0 0 3 1.5 1.5 0 0 0 0-3M21 5v14a2 2 0 0 1-2 2H5a2 2 0 0 0 2 2h12a4 4 0 0 0 4-4V7a2 2 0 0 0-2-2"/></symbol><symbol viewBox="0 0 24 24" id="photo-landscape-outlined"><path fill="currentColor" d="M20 4H4a2 2 0 0 0-2 2v12a2 2 0 0 0 2 2h16a2 2 0 0 0 2-2V6a2 2 0 0 0-2-2m0 12.83a.49.49 0 0 1-.5.5.48.48 0 0 1-.4-.2l-4.45-5.93a.51.51 0 0 0-.8 0L11 14.91a.51.51 0 0 1-.4.2.49.49 0 0 1-.38-.18l-1.48-1.75a.5.5 0 0 0-.39-.18.52.52 0 0 0-.39.19l-3.07 3.94a.48.48 0 0 1-.39.19.49.49 0 0 1-.5-.5V6h16zM8 9.5a1.5 1.5 0 1 1 3 0 1.5 1.5 0 0 1-3 0"/></symbol><symbol viewBox="0 0 24 24" id="pinterest"><path fill="currentColor" d="M22 12.011C22 17.528 17.523 22 12 22a9.8 9.8 0 0 1-2.25-.26.48.48 0 0 1-.34-.28.49.49 0 0 1 0-.439l.15-.29a6 6 0 0 0 .56-1.538l.66-3.096a3.94 3.94 0 0 0 2.92 1.069c3.09 0 5.17-2.418 5.17-5.994 0-3.426-3-5.993-6.88-5.993s-6.88 2.697-6.88 5.993a5.47 5.47 0 0 0 1.78 3.996.49.49 0 0 0 .49.12.47.47 0 0 0 .34-.37l.2-.899a.52.52 0 0 0-.11-.43 3.6 3.6 0 0 1-.94-2.377c0-2.347 2.29-4.255 5.12-4.255s5.12 1.788 5.12 4.255c0 2.068-.89 4.265-3.41 4.265a2.14 2.14 0 0 1-2.36-1.927l.65-2.997a1.8 1.8 0 0 0-.21-1.508 1.06 1.06 0 0 0-.78-.48c-1.47 0-1.55 2.468-1.55 2.997q-.01.976.16 1.938l-1.28 5.763a5.7 5.7 0 0 0-.13 1.488.34.34 0 0 1-.14.28.31.31 0 0 1-.31 0 9.985 9.985 0 0 1-5.323-11.93A10 10 0 0 1 13.473 2.11 9.99 9.99 0 0 1 22 12.01"/></symbol><symbol viewBox="0 0 24 24" id="pinterest-circle"><path fill="currentColor" d="M22 12.011C22 17.528 17.523 22 12 22a9.8 9.8 0 0 1-2.25-.26.48.48 0 0 1-.34-.28.49.49 0 0 1 0-.439l.15-.29a6 6 0 0 0 .56-1.538l.66-3.096a3.94 3.94 0 0 0 2.92 1.069c3.09 0 5.17-2.418 5.17-5.994 0-3.426-3-5.993-6.88-5.993s-6.88 2.697-6.88 5.993a5.47 5.47 0 0 0 1.78 3.996.49.49 0 0 0 .49.12.47.47 0 0 0 .34-.37l.2-.899a.52.52 0 0 0-.11-.43 3.6 3.6 0 0 1-.94-2.377c0-2.347 2.29-4.255 5.12-4.255s5.12 1.788 5.12 4.255c0 2.068-.89 4.265-3.41 4.265a2.14 2.14 0 0 1-2.36-1.927l.65-2.997a1.8 1.8 0 0 0-.21-1.508 1.06 1.06 0 0 0-.78-.48c-1.47 0-1.55 2.468-1.55 2.997q-.01.976.16 1.938l-1.28 5.763a5.7 5.7 0 0 0-.13 1.488.34.34 0 0 1-.14.28.31.31 0 0 1-.31 0 9.985 9.985 0 0 1-5.323-11.93A10 10 0 0 1 13.473 2.11 9.99 9.99 0 0 1 22 12.01"/></symbol><symbol viewBox="0 0 24 24" id="play"><path fill="currentColor" d="M18 11.86v.28a.76.76 0 0 1-.37.65L8.68 18c-.54.32-.82.32-1.06.18l-.25-.14a.76.76 0 0 1-.37-.63V6.59a.76.76 0 0 1 .37-.65l.25-.14c.24-.14.52-.14 1.22.27l8.79 5.14a.76.76 0 0 1 .37.65"/></symbol><symbol viewBox="0 0 24 24" id="play-circle"><path fill="currentColor" d="M12 2C6.477 2 2 6.477 2 12s4.477 10 10 10 10-4.477 10-10A10 10 0 0 0 12 2m4 10.64-5.83 3.64A.75.75 0 0 1 9 15.65v-7.3a.75.75 0 0 1 1.15-.63L16 11.36a.76.76 0 0 1 0 1.28"/></symbol><symbol viewBox="0 0 24 24" id="premium-assets"><path fill="currentColor" d="m16.395 9.019-2.009 1.642.613 2.455a.47.47 0 0 1-.188.503.52.52 0 0 1-.555.028l-2.25-1.324-2.25 1.324a.53.53 0 0 1-.555-.031.48.48 0 0 1-.198-.5l.612-2.455L7.606 9.02a.47.47 0 0 1-.154-.516.5.5 0 0 1 .436-.335l2.621-.193 1.005-2.348a.5.5 0 0 1 .462-.294c.201 0 .383.116.462.294l1.004 2.348 2.612.193a.5.5 0 0 1 .484.31.47.47 0 0 1-.143.54"/><circle stroke="currentColor" stroke-width="2" cx="12" cy="9.714" r="7"/><path fill="currentColor" d="M8 21.271V16h8.093v5.271a.694.694 0 0 1-1.007.62l-2.727-1.379a.7.7 0 0 0-.626 0L9.007 21.89A.694.694 0 0 1 8 21.271"/></symbol><symbol viewBox="0 0 24 24" id="print"><path fill="currentColor" d="M19 7V5a2 2 0 0 0-2-2H7a2 2 0 0 0-2 2v2a2 2 0 0 0-2 2v5.5a.5.5 0 0 0 .5.5H5v4a2 2 0 0 0 2 2h10a2 2 0 0 0 2-2v-4h1.5a.5.5 0 0 0 .5-.5V9a2 2 0 0 0-2-2M7 5h10v2H7zm10 14H7v-6h10zm2-8.5a.5.5 0 0 1-.5.5h-1a.5.5 0 0 1-.5-.5v-1a.5.5 0 0 1 .5-.5h1a.5.5 0 0 1 .5.5z"/></symbol><symbol viewBox="0 0 24 24" id="receipt"><path fill="currentColor" d="M6.18 21.85a.47.47 0 0 0 .35.15h.29a.47.47 0 0 0 .35-.15L9 20a.51.51 0 0 1 .71 0l1.81 1.81a.47.47 0 0 0 .35.15h.29a.47.47 0 0 0 .35-.15L14.32 20a.51.51 0 0 1 .68 0l1.81 1.81a.47.47 0 0 0 .35.15h.29a.47.47 0 0 0 .35-.15L19.71 20a1 1 0 0 0 .29-.7V3a1 1 0 0 0-1-1H5a1 1 0 0 0-1 1v16.26c.004.265.107.518.29.71zM13 13.5a.5.5 0 0 1-.5.5h-4a.5.5 0 0 1-.5-.5v-1a.5.5 0 0 1 .5-.5h4a.5.5 0 0 1 .5.5zm3-4a.5.5 0 0 1-.5.5h-7a.5.5 0 0 1-.5-.5v-1a.5.5 0 0 1 .5-.5h7a.5.5 0 0 1 .5.5z"/></symbol><symbol viewBox="0 0 24 24" id="redo"><path fill="currentColor" d="M11.48 8a10.37 10.37 0 0 1 7 2.57l2.42-2.42a.5.5 0 0 1 .31-.15h.29a.5.5 0 0 1 .5.5v7a.5.5 0 0 1-.5.5h-7a.5.5 0 0 1-.5-.5v-.29a.5.5 0 0 1 .15-.36l2.52-2.52a7.9 7.9 0 0 0-5.19-1.83c-3.67 0-6.69 2.23-7 5.05A.49.49 0 0 1 4 16H2.5a.5.5 0 0 1-.5-.54C2.33 11.29 6.45 8 11.48 8"/></symbol><symbol viewBox="0 0 24 24" id="refresh"><path fill="currentColor" d="M20.5 10h-5a.5.5 0 0 1-.5-.5v-.29a.5.5 0 0 1 .15-.36l1.78-1.78A6.93 6.93 0 0 0 12 5a7 7 0 1 0 7 7.47.5.5 0 0 1 .5-.47h1a.52.52 0 0 1 .36.16.5.5 0 0 1 .13.37 9 9 0 1 1-2.62-6.89l1.49-1.49a.5.5 0 0 1 .35-.15h.29a.5.5 0 0 1 .5.5v5a.5.5 0 0 1-.5.5"/></symbol><symbol viewBox="0 0 24 24" id="remove"><path fill="currentColor" d="M5.5 13a.5.5 0 0 1-.5-.5v-1a.5.5 0 0 1 .5-.5h13a.5.5 0 0 1 .5.5v1a.5.5 0 0 1-.5.5z"/></symbol><symbol viewBox="0 0 24 24" id="repeat"><path fill="currentColor" d="M18.994 12.505V17a2 2 0 0 1-2 1.998h-10v1.999a.5.5 0 0 1-.85.36l-3-2.998a.51.51 0 0 1 0-.71l3-2.997a.5.5 0 0 1 .85.35V17h10v-4.496a.5.5 0 0 1 .5-.5h1a.5.5 0 0 1 .5.5m1.86-6.854-3-2.998a.5.5 0 0 0-.86.36V5.01h-10a2 2 0 0 0-2 1.998v4.497a.5.5 0 0 0 .5.5h1a.5.5 0 0 0 .5-.5V7.009h10v1.999a.5.5 0 0 0 .85.36l3-2.998a.51.51 0 0 0 .01-.72"/></symbol><symbol viewBox="0 0 24 24" id="search"><path fill="currentColor" d="m20.875 19.46-4-4.005a2.4 2.4 0 0 0-.43-.35l-1-.69a7.015 7.015 0 0 0 .046-8.754A6.995 6.995 0 0 0 6.973 3.69a7.011 7.011 0 0 0 3.052 13.327c1.588 0 3.13-.54 4.37-1.531l.75 1q.134.195.3.361l4 4.005a.5.5 0 0 0 .71 0l.7-.7a.5.5 0 0 0 .02-.692m-10.85-4.445a5.003 5.003 0 0 1-4.62-6.92 5 5 0 0 1 4.62-3.092c2.761 0 5 2.241 5 5.006a5.01 5.01 0 0 1-3.087 4.625 5 5 0 0 1-1.913.381"/></symbol><symbol viewBox="0 0 24 24" id="security-on"><path fill="currentColor" d="M21 7.24a3 3 0 0 0-.88-2.12l-3.53-3.53A2 2 0 0 0 15.17 1H8.83a2 2 0 0 0-1.42.59L3.88 5.12A3 3 0 0 0 3 7.24v5.85a8 8 0 0 0 3.09 6.31l4.08 3.18a2 2 0 0 0 1.23.42h1.2a2 2 0 0 0 1.23-.42l4.08-3.18A8 8 0 0 0 21 13.09zm-4.65 2-5.62 5.62a.48.48 0 0 1-.7 0l-2.38-2.38a.5.5 0 0 1 0-.71l.53-.53a.48.48 0 0 1 .7 0l1.5 1.49L15.12 8a.5.5 0 0 1 .7 0l.53.53a.5.5 0 0 1 0 .7z"/></symbol><symbol viewBox="0 0 24 24" id="send"><g clip-path="url(#bra)"><path fill="currentColor" d="m20.968 3.949-5.99 16.722a.5.5 0 0 1-.469.329h-.16a.51.51 0 0 1-.459-.29l-2.355-4.991a2 2 0 0 1 .339-2.206l2.995-3.275a.5.5 0 0 0 0-.688l-.38-.38a.5.5 0 0 0-.689 0l-3.274 2.995a2 2 0 0 1-2.206.34l-4.99-2.357A.51.51 0 0 1 3 9.69v-.16a.5.5 0 0 1 .33-.509l16.72-5.99a.5.5 0 0 1 .518.11l.26.26a.5.5 0 0 1 .14.549"/></g><defs><clipPath id="bra"><path fill="currentColor" d="M0 0h24v24H0z"/></clipPath></defs></symbol><symbol viewBox="0 0 24 24" id="share"><path fill="currentColor" d="M21 19.003A3 3 0 0 1 18 22c-1.657 0-3-1.342-3-2.997a2 2 0 0 1 0-.25.51.51 0 0 0-.24-.48l-6.54-3.816a.5.5 0 0 0-.54 0 2.94 2.94 0 0 1-1.68.549 2.999 2.999 0 1 1 0-5.995c.601 0 1.187.186 1.68.53a.5.5 0 0 0 .54 0l6.55-3.817a.51.51 0 0 0 .23-.46 2 2 0 0 1 0-.25 3 3 0 0 1 5.716-1.29 2.996 2.996 0 0 1-.888 3.65 3 3 0 0 1-3.758-.081l-6.84 3.996a.51.51 0 0 0-.24.48q.02.25 0 .5a.51.51 0 0 0 .24.479l6.55 3.817a.5.5 0 0 0 .54 0 2.94 2.94 0 0 1 1.68-.56c1.657 0 3 1.342 3 2.998"/></symbol><symbol viewBox="0 0 24 24" id="sign-out"><path fill="currentColor" d="m20.78 11.28-5.14-5.13a.5.5 0 0 0-.71 0l-.71.71a.49.49 0 0 0 0 .7L17.67 11H7.5a.5.5 0 0 0-.5.5v1a.5.5 0 0 0 .5.5h10.17l-3.45 3.44a.5.5 0 0 0 0 .71l.71.7a.5.5 0 0 0 .71 0l5.14-5.13a.75.75 0 0 0 .22-.53v-.38a.77.77 0 0 0-.22-.53M10.5 19H5V5h5.5a.5.5 0 0 0 .5-.5v-1a.5.5 0 0 0-.5-.5H5a2 2 0 0 0-2 2v14a2 2 0 0 0 2 2h5.5a.5.5 0 0 0 .5-.5v-1a.5.5 0 0 0-.5-.5"/></symbol><symbol viewBox="0 0 24 24" id="similar"><g fill="currentColor" clip-path="url(#boa)"><path fill-rule="evenodd" clip-rule="evenodd" d="M9.32 19.522a7.2 7.2 0 0 0 5.088 2.078c1.924-.024 3.719-.684 5.211-2.232 1.323-1.373 1.996-3.06 1.98-4.957-.021-2.41-1.034-4.373-2.98-5.819-1.203-.896-2.583-1.371-4.076-1.38-2.252-.016-4.162.827-5.638 2.543-1.16 1.346-1.73 2.942-1.717 4.71a7.17 7.17 0 0 0 2.132 5.057m.589-1.726a5.5 5.5 0 0 0 2.73 1.959c1.545.518 3.045.382 4.457-.386 1.778-.968 2.816-2.515 2.946-4.515.141-2.154-.697-3.82-2.353-5.01a8 8 0 0 0-.84-.528.5.5 0 0 0-.026.091l-.025.337q-.026.37-.06.74a9 9 0 0 1-.097.666 2.4 2.4 0 0 1-.096.364c-.05.152-.107.302-.162.452l-.067.18-.058.168c-.041.125-.083.25-.145.366-.215.412-.435.822-.728 1.194q-.385.496-.835.936a7.3 7.3 0 0 1-1.359 1.024 6.4 6.4 0 0 1-1.181.551q-.653.216-1.328.347c-.198.04-.402.05-.607.06l-.235.012q-.182.012-.378.018l-.157.006q.27.525.604.968"/><path d="M15.808 5.937c-.122-.203-.228-.42-.374-.605a13 13 0 0 0-.742-.852 5 5 0 0 0-.568-.519 8 8 0 0 0-.722-.505 9 9 0 0 0-.813-.439 4 4 0 0 0-.543-.194c-.351-.11-.698-.242-1.057-.313-.36-.07-.728-.077-1.092-.1a6 6 0 0 0-.668 0q-.495.034-.989.094a2.5 2.5 0 0 0-.436.094q-.343.107-.677.234a7 7 0 0 0-.702.28q-.346.18-.668.401c-.273.182-.559.348-.8.564-.456.412-.91.833-1.23 1.37-.215.36-.465.702-.647 1.077-.182.376-.303.762-.428 1.15a4.4 4.4 0 0 0-.16.727 7 7 0 0 0-.09.99c.004.436.048.872.085 1.307q.021.24.089.47.104.365.234.72c.113.31.22.623.36.92.107.228.267.432.395.652.212.356.464.688.75.988.34.373.723.706 1.139.992.217.146.437.286.684.448-.308-.873-.136-1.971-.136-1.971a.5.5 0 0 0-.081-.07c-.35-.252-.618-.588-.872-.928a4.4 4.4 0 0 1-.634-1.13c-.106-.29-.237-.572-.304-.87-.066-.298-.085-.613-.122-.915a1 1 0 0 1-.022-.149c.02-.41.03-.82.068-1.227.016-.173.092-.34.138-.509.037-.136.051-.283.109-.41q.23-.501.489-.988a4.5 4.5 0 0 1 1.092-1.317 10 10 0 0 1 .87-.623c.331-.223.698-.39 1.084-.496.115-.032.227-.072.343-.101.2-.051.4-.108.606-.14.174-.027.353-.02.529-.03.155-.01.31-.046.462-.032.342.034.683.087 1.022.142q.245.033.478.11.382.141.751.314.36.152.688.364c.44.31.867.644 1.194 1.079a.2.2 0 0 0 .079.068c.275-.092.952-.238 1.947.074-.043-.075-.073-.137-.108-.196"/></g><defs><clipPath id="boa"><path fill="#fff" d="M2.4 2.4h19.2v19.2H2.4z"/></clipPath></defs></symbol><symbol viewBox="0 0 24 24" id="sms-chat-outlined"><path fill="currentColor" d="M15.013 15.98a4 4 0 0 0 4.003-3.994V5.994A4 4 0 0 0 15.013 2H5.003A4 4 0 0 0 1 5.994v12.483a.5.5 0 0 0 .5.499.5.5 0 0 0 .35-.15l2.003-1.997a3 3 0 0 1 2.152-.849zm-12.011-.998V5.994a2 2 0 0 1 2.002-1.997h10.009a2 2 0 0 1 2.002 1.997v5.992a2 2 0 0 1-2.002 1.997H6.005c-1.083 0-2.137.35-3.003.999m10.51-4.993h1a.5.5 0 0 0 .5-.5v-.998a.5.5 0 0 0-.5-.5h-1a.5.5 0 0 0-.501.5v.998a.5.5 0 0 0 .5.5m-4.004 0h1a.5.5 0 0 0 .501-.5v-.998a.5.5 0 0 0-.5-.5h-1a.5.5 0 0 0-.5.5v.998a.5.5 0 0 0 .5.5m-2.503-.5v-.998a.5.5 0 0 0-.5-.5h-1a.5.5 0 0 0-.501.5v.998a.5.5 0 0 0 .5.5h1.001a.5.5 0 0 0 .5-.5m14.013-3.495v7.989a4 4 0 0 1-4.003 3.994H5.004a2 2 0 0 0 2.001 1.997h11.01c.8-.002 1.567.315 2.132.88l2.002 1.996a.5.5 0 0 0 .35.15.5.5 0 0 0 .501-.5V7.993a2 2 0 0 0-1.982-1.998"/></symbol><symbol viewBox="0 0 24 24" id="sound-gen"><path fill="var(--color-content-primary-accent, currentcolor)" fill-rule="evenodd" clip-rule="evenodd" d="M22 11.987H2v1.164h20z"/><path fill="var(--color-content-primary, currentcolor)" d="M12 19.143c-1.477 0-1.96-2.41-2.571-5.46-.242-1.209-.493-2.46-.795-3.363C8.276 9.243 8.003 9.157 8 9.157c-.423 0-.602.312-.966 1.311-.411 1.132-.974 2.683-3.035 2.683H2v-1.164h2c1.182 0 1.506-.727 1.937-1.915.335-.925.755-2.079 2.062-2.079 1.478 0 1.96 2.41 2.572 5.46.243 1.21.494 2.461.795 3.364.296.886.533 1.101.61 1.15.593-.498 1.126-4.229 1.449-6.478C14.126 6.568 14.562 4 16 4s1.728 1.879 2.088 3.868c.35 1.93.748 4.119 1.912 4.119h2v1.164h-2c-2.138 0-2.627-2.697-3.06-5.075-.179-.989-.509-2.803-.904-2.908-.597.462-1.135 4.224-1.458 6.484-.705 4.921-1.139 7.49-2.577 7.49"/><path fill="var(--color-content-primary-accent, currentcolor)" d="M16.327 13.15h-4.328a.584.584 0 0 1-.583-.581c0-.32.262-.582.583-.582h4.328c.32 0 .583.261.583.582s-.262.582-.583.582M7.35 11.987H2v1.164h5.35z"/></symbol><symbol viewBox="0 0 24 24" id="soundcloud"><path fill="currentColor" fill-rule="evenodd" clip-rule="evenodd" d="M19.965 10.911a3.1 3.1 0 0 0-1.077.191C18.498 8.776 16.412 7 13.896 7c0 0-2.276 0-2.276 1.222v7.822c0 .405.34.734.76.734h7.585c1.676 0 3.035-1.313 3.035-2.933s-1.359-2.934-3.035-2.934m-9.86 3.178.126 2.322c0 .203.17.367.38.367a.373.373 0 0 0 .378-.367l.127-2.322-.127-5.745a.373.373 0 0 0-.379-.366c-.21 0-.38.164-.38.366zm-1.518 0 .126 2.322c0 .202.17.366.38.366s.379-.164.379-.366l.126-2.323-.126-4.277a.373.373 0 0 0-.38-.367.373.373 0 0 0-.379.367zM7.195 16.41l-.127-2.322.127-4.767c0-.203.17-.367.379-.367.21 0 .38.164.38.367l.126 4.767-.127 2.322c0 .202-.17.367-.38.367a.373.373 0 0 1-.378-.367m-1.643-2.32.127 2.322c0 .202.17.367.38.367a.374.374 0 0 0 .379-.367l.126-2.322-.126-3.79a.373.373 0 0 0-.38-.366c-.21 0-.38.164-.38.367zm-1.39 2.322-.127-2.323.126-1.833c0-.203.17-.367.38-.367.209 0 .379.165.379.367l.126 1.833-.126 2.323c0 .202-.17.366-.38.366a.373.373 0 0 1-.379-.366m-1.645-2.324.127 2.322c0 .203.17.367.38.367a.37.37 0 0 0 .378-.367l.127-2.322-.127-2.322a.373.373 0 0 0-.379-.367c-.21 0-.38.164-.38.367zm-1.39 1.346L1 14.089l.126-1.344c0-.203.17-.367.38-.367s.38.164.38.367l.126 1.344-.127 1.345c0 .202-.17.366-.38.366a.373.373 0 0 1-.379-.366"/></symbol><symbol viewBox="0 0 24 24" id="sounds-like-search"><path fill="currentColor" d="M16 10.825v.84c0 .183-.15.333-.333.333H15a.333.333 0 0 1-.333-.334v-.18a1.81 1.81 0 0 0-1-1.572c-.12-.067-.227-.147-.334-.22v5.997a2.52 2.52 0 0 1-2.666 2.306A2.52 2.52 0 0 1 8 15.663a2.52 2.52 0 0 1 2.667-2.333 2.86 2.86 0 0 1 1.333.327V6.333c0-.184.15-.333.333-.333H13c.184 0 .333.15.333.333v.113a1.78 1.78 0 0 0 .954 1.613A3.08 3.08 0 0 1 16 10.825"/><path fill="currentColor" fill-rule="evenodd" clip-rule="evenodd" d="M2 5a3 3 0 0 1 3-3h4v2H5a1 1 0 0 0-1 1v14a1 1 0 0 0 1 1h4v2H5a3 3 0 0 1-3-3zm20 0a3 3 0 0 0-3-3h-4v2h4a1 1 0 0 1 1 1v14a1 1 0 0 1-1 1h-4v2h4a3 3 0 0 0 3-3z"/></symbol><symbol viewBox="0 0 24 24" id="spotify"><path fill="currentColor" d="M12 2C6.477 2 2 6.477 2 12s4.477 10 10 10c5.524 0 10-4.477 10-10S17.525 2 12 2m4.586 14.423a.623.623 0 0 1-.857.207c-2.348-1.435-5.304-1.76-8.785-.964a.624.624 0 0 1-.277-1.216c3.81-.87 7.077-.495 9.713 1.116.293.18.387.563.206.857M17.81 13.7a.78.78 0 0 1-1.072.257c-2.688-1.653-6.786-2.131-9.965-1.166A.78.78 0 0 1 6.32 11.3c3.632-1.102 8.147-.568 11.234 1.329a.78.78 0 0 1 .256 1.072m.105-2.836c-3.223-1.914-8.54-2.09-11.617-1.156a.935.935 0 1 1-.543-1.79c3.532-1.072 9.404-.865 13.115 1.338a.934.934 0 1 1-.954 1.608"/></symbol><symbol viewBox="0 0 24 24" id="square-outlined"><path fill="currentColor" d="M19 5v14H5V5zm0-2H5a2 2 0 0 0-2 2v14a2 2 0 0 0 2 2h14a2 2 0 0 0 2-2V5a2 2 0 0 0-2-2"/></symbol><symbol viewBox="0 0 24 24" id="star"><path fill="currentColor" d="M11.87 2a.51.51 0 0 0-.478.32L8.948 8.21l-6.372.51a.49.49 0 0 0-.439.35l-.11.25a.49.49 0 0 0 .15.54L7.014 14l-1.436 6.22a.51.51 0 0 0 .19.53l.248.15a.47.47 0 0 0 .3.1.5.5 0 0 0 .259-.07L12 17.6l5.455 3.33a.5.5 0 0 0 .26.07.47.47 0 0 0 .298-.1l.22-.15a.51.51 0 0 0 .19-.53L16.985 14l4.847-4.15a.49.49 0 0 0 .14-.53l-.08-.25a.49.49 0 0 0-.44-.35l-6.371-.51-2.484-5.89A.49.49 0 0 0 12.13 2z"/></symbol><symbol viewBox="0 0 24 24" id="star-outlined"><path fill="currentColor" d="m13.855 9.87 4.797.38-3.66 3.13 1.117 4.68L12 15.55l-4.119 2.51 1.127-4.68-3.66-3.13 4.797-.38L12 5.41zM11.87 2a.51.51 0 0 0-.478.32L8.948 8.21l-6.372.51a.49.49 0 0 0-.439.35l-.11.25a.49.49 0 0 0 .15.54L7.014 14l-1.436 6.22a.51.51 0 0 0 .19.53l.248.15a.47.47 0 0 0 .3.1.5.5 0 0 0 .259-.07L12 17.6l5.455 3.33a.5.5 0 0 0 .26.07.47.47 0 0 0 .298-.1l.22-.15a.51.51 0 0 0 .19-.53L16.985 14l4.847-4.15a.49.49 0 0 0 .14-.53l-.08-.25a.49.49 0 0 0-.44-.35l-6.371-.51-2.484-5.89A.49.49 0 0 0 12.13 2z"/></symbol><symbol viewBox="0 0 24 24" id="sun"><path fill="currentColor" d="M17 12a5 5 0 1 1-10 0 5 5 0 0 1 10 0m-5.5-7h1a.5.5 0 0 0 .5-.5v-2a.5.5 0 0 0-.5-.5h-1a.5.5 0 0 0-.5.5v2a.5.5 0 0 0 .5.5m1 14h-1a.5.5 0 0 0-.5.5v2a.5.5 0 0 0 .5.5h1a.5.5 0 0 0 .5-.5v-2a.5.5 0 0 0-.5-.5m9-8h-2a.5.5 0 0 0-.5.5v1a.5.5 0 0 0 .5.5h2a.5.5 0 0 0 .5-.5v-1a.5.5 0 0 0-.5-.5M5 12.5v-1a.5.5 0 0 0-.5-.5h-2a.5.5 0 0 0-.5.5v1a.5.5 0 0 0 .5.5h2a.5.5 0 0 0 .5-.5m12.3-5.1a.5.5 0 0 0 .71 0L19.42 6a.5.5 0 0 0 0-.71l-.7-.7a.5.5 0 0 0-.71 0L16.6 6a.5.5 0 0 0 0 .71zM6.7 16.6a.5.5 0 0 0-.71 0L4.58 18a.5.5 0 0 0 0 .71l.7.7a.5.5 0 0 0 .71 0L7.4 18a.5.5 0 0 0 0-.71zm11.3 0a.5.5 0 0 0-.71 0l-.7.7a.5.5 0 0 0 0 .71L18 19.42a.5.5 0 0 0 .71 0l.7-.7a.5.5 0 0 0 0-.71zM6 7.4a.5.5 0 0 0 .71 0l.7-.7A.5.5 0 0 0 7.4 6L6 4.58a.5.5 0 0 0-.71 0l-.7.7a.5.5 0 0 0 0 .71z"/></symbol><symbol viewBox="0 0 24 24" id="support"><path fill="currentColor" d="M21 13v4a2 2 0 0 1-2 2v1a3 3 0 0 1-3 3h-3a1 1 0 0 1-1-1v-.5a.5.5 0 0 1 .5-.5H16a1 1 0 0 0 1-1v-1a1 1 0 0 1-1-1v-6a1 1 0 0 1 1-1V8A5 5 0 0 0 7 8v3a1 1 0 0 1 1 1v6a1 1 0 0 1-1 1H5a2 2 0 0 1-2-2v-4a2 2 0 0 1 2-2V8a7 7 0 0 1 14 0v3a2 2 0 0 1 2 2"/></symbol><symbol viewBox="0 0 24 24" id="swap-horizontal"><path fill="currentColor" d="m21.854 9.36-3 3a.5.5 0 0 1-.86-.36v-2h-7.5a.5.5 0 0 1-.5-.5v-1a.5.5 0 0 1 .5-.5h7.5V6a.5.5 0 0 1 .85-.36l3 3a.51.51 0 0 1 .01.72M13.494 14h-7.5v-2a.5.5 0 0 0-.85-.36l-3 3a.51.51 0 0 0 0 .71l3 3a.5.5 0 0 0 .85-.35v-2h7.5a.5.5 0 0 0 .5-.5v-1a.5.5 0 0 0-.5-.5"/></symbol><symbol viewBox="0 0 24 24" id="text"><path fill="currentColor" d="M13 18.5a.5.5 0 0 1-.147.354.5.5 0 0 1-.354.147H11.5a.5.5 0 0 1-.354-.148A.5.5 0 0 1 11 18.5V6H6.5a.5.5 0 0 1-.352-.147A.5.5 0 0 1 6 5.501V4.5a.5.5 0 0 1 .5-.5h11a.5.5 0 0 1 .5.5v1c0 .133-.053.26-.147.353A.5.5 0 0 1 17.5 6H13z"/></symbol><symbol viewBox="0 0 24 24" id="texture"><path fill="currentColor" d="M3 5v14a2 2 0 0 0 2 2h14a2 2 0 0 0 2-2V5a2 2 0 0 0-2-2H5a2 2 0 0 0-2 2m2 3h3V5h4v3h4V5h3v3h-3v4h3v4h-3v3h-4v-3H8v3H5v-3h3v-4H5zm11 4v4h-4v-4zm-8 0V8h4v4z"/></symbol><symbol viewBox="0 0 24 24" id="threads"><path fill="currentColor" d="M19.486 7.288a8 8 0 0 0-.606-1.07 7 7 0 0 0-.76-.943 6.8 6.8 0 0 0-1.225-1.011 7 7 0 0 0-1.303-.662 8.4 8.4 0 0 0-1.267-.376 10.5 10.5 0 0 0-2.057-.224L11.906 3a9 9 0 0 0-.536.017 10 10 0 0 0-.575.055 9 9 0 0 0-1.357.272q-.626.177-1.21.454a6.7 6.7 0 0 0-1.633 1.099q-.293.27-.554.57a7.2 7.2 0 0 0-.875 1.271q-.29.539-.499 1.11-.232.641-.378 1.305-.16.738-.229 1.49-.03.325-.049.654c-.01.168-.01.338-.01.507-.002.37-.002.74.025 1.108q.014.198.03.395a12.6 12.6 0 0 0 .337 1.963q.174.665.443 1.3.198.462.451.896.323.553.74 1.042a6.66 6.66 0 0 0 2.48 1.811q.68.288 1.403.447c.55.123 1.108.194 1.67.223.332.017.664.01.996.005q.095.002.188-.007a.1.1 0 0 1 .048-.005c.086 0 .172-.011.257-.017q.304-.02.606-.064a9 9 0 0 0 1.001-.197q.645-.167 1.244-.453.436-.21.837-.482.431-.296.812-.65a6 6 0 0 0 .432-.443 5 5 0 0 0 .639-.9 4.7 4.7 0 0 0 .592-2.144q-.002-.04.002-.077c.001-.051.006-.102 0-.152a.4.4 0 0 1-.001-.075c0-.044.003-.088-.003-.132a.1.1 0 0 1-.007-.048c.002-.054-.006-.108-.012-.161a5 5 0 0 0-.093-.56 4.2 4.2 0 0 0-.506-1.258 4.4 4.4 0 0 0-.922-1.066 5.4 5.4 0 0 0-1.07-.697 6 6 0 0 0-.36-.166c-.028-.011-.039-.028-.042-.058a8 8 0 0 0-.067-.61c-.093-.577-.262-1.129-.561-1.639a3.37 3.37 0 0 0-1.561-1.393 4 4 0 0 0-.967-.286 5 5 0 0 0-.549-.062c-.136-.007-.271-.019-.407-.013-.137.005-.274.008-.411.021a5 5 0 0 0-.666.111 4 4 0 0 0-.949.362 3.7 3.7 0 0 0-1.3 1.157c-.032.048-.031.061.017.093l.584.387.66.438c.049.033.059.033.094-.016q.101-.143.225-.268.285-.286.66-.45c.306-.134.628-.201.961-.216q.228-.01.456.005c.263.018.52.063.767.152a1.8 1.8 0 0 1 .903.682c.224.329.342.696.414 1.08.004.025-.002.03-.027.027a10 10 0 0 0-1.33-.117q-.499-.01-.996.023-.247.017-.492.052a4.7 4.7 0 0 0-1.523.485 3.3 3.3 0 0 0-.946.738 2.7 2.7 0 0 0-.667 1.75c-.004.142.008.284.026.425q.058.487.285.924.244.466.647.817.323.279.708.471c.216.11.443.193.676.26q.505.145 1.028.163.428.018.853-.039c.476-.063.93-.191 1.354-.413q.606-.319 1.039-.84c.321-.386.55-.821.715-1.29.128-.364.213-.739.27-1.12.005-.044.008-.045.047-.021q.089.055.175.114.341.232.61.543c.248.29.418.619.519.983a3.1 3.1 0 0 1-.015 1.69q-.15.512-.456.951c-.21.304-.466.57-.75.81-.369.311-.773.57-1.22.765a5.7 5.7 0 0 1-1.108.35 8.5 8.5 0 0 1-1.48.166 8.7 8.7 0 0 1-1.743-.109 6.4 6.4 0 0 1-1.988-.648 5.2 5.2 0 0 1-1.12-.804 5 5 0 0 1-.379-.408 5.8 5.8 0 0 1-.803-1.274 7.7 7.7 0 0 1-.458-1.285 10 10 0 0 1-.216-1.076q-.046-.315-.073-.631l-.028-.366a11 11 0 0 1-.025-.89c.004-.185.006-.37.017-.554q.011-.195.027-.391.028-.36.079-.716c.085-.585.213-1.16.409-1.72.159-.454.358-.89.612-1.301q.323-.521.754-.963.17-.17.357-.322.444-.364.961-.624c.322-.162.658-.29 1.005-.393q.511-.148 1.04-.222.29-.04.58-.06c.143-.01.286-.023.429-.023.209 0 .418-.007.627.005q.177.009.354.021.26.021.519.058.6.082 1.18.26.558.172 1.07.448.346.184.655.42.361.27.668.597t.557.696c.228.34.415.7.574 1.074q.174.415.3.847c.018.064.025.068.092.052l.394-.102 1.056-.272c.02-.005.04-.01.054-.027v-.017c-.033-.069-.047-.144-.07-.216a9 9 0 0 0-.445-1.16zm-.264 8.046c.013.027.004.055.005.082-.013-.026-.004-.054-.005-.082m.005.209c-.001.03.008.06-.005.09.001-.03-.008-.06.005-.09m-.014-.396c.011.014.005.03.005.046-.011-.014-.004-.03-.005-.046m-4.633-2.714a5.6 5.6 0 0 1-.146.886c-.103.398-.254.775-.52 1.1-.29.35-.668.559-1.117.651q-.47.099-.949.058c-.424-.037-.825-.148-1.17-.402-.273-.199-.45-.46-.499-.79a1.18 1.18 0 0 1 .328-1.032c.236-.25.535-.397.862-.499.341-.106.693-.15 1.05-.166q.236-.011.472-.012.597-.001 1.187.077.233.033.465.08c.033.005.04.017.037.05m-1.77 8.54c-.015.01-.032.004-.048.004.015-.011.032-.004.048-.005"/></symbol><symbol viewBox="0 0 24 24" id="thumbs-down"><path fill="currentColor" d="M19 4.5a.5.5 0 0 1 .5-.5h2a.5.5 0 0 1 .5.5v9a.5.5 0 0 1-.5.5h-2a.5.5 0 0 1-.5-.5zM4 14h5l-1.55 3.11a4.15 4.15 0 0 0-.45 2v.37A1.5 1.5 0 0 0 8.5 21h.14a.5.5 0 0 0 .47-.34l.6-1.78a2 2 0 0 1 1.15-1.22l.43-.17a4.06 4.06 0 0 0 1.9-1.6l1.22-2a2 2 0 0 1 1.7-.94H17V5h-.59A3.4 3.4 0 0 1 14 4a3.4 3.4 0 0 0-2.41-1H5.35A2 2 0 0 0 3.5 4.26L2.43 6.93A6.1 6.1 0 0 0 2 9.16V12a2 2 0 0 0 2 2"/></symbol><symbol viewBox="0 0 24 24" id="thumbs-up"><path fill="currentColor" d="M5 19.5a.5.5 0 0 1-.5.5h-2a.5.5 0 0 1-.5-.5v-9a.5.5 0 0 1 .5-.5h2a.5.5 0 0 1 .5.5zM20 10h-5l1.55-3.11a4.15 4.15 0 0 0 .45-2V4.5A1.5 1.5 0 0 0 15.5 3h-.14a.5.5 0 0 0-.47.34l-.6 1.78a2 2 0 0 1-1.15 1.22l-.43.17a4.06 4.06 0 0 0-1.9 1.6l-1.22 2a2 2 0 0 1-1.7.94H7v8h.59A3.4 3.4 0 0 1 10 20c.639.64 1.506 1 2.41 1h6.24a2 2 0 0 0 1.85-1.26l1.07-2.67a6.1 6.1 0 0 0 .43-2.23V12a2 2 0 0 0-2-2"/></symbol><symbol viewBox="0 0 24 24" id="tik-tok"><path fill="currentColor" d="M21 7.48v2a.52.52 0 0 1-.16.37.5.5 0 0 1-.37.13A7.9 7.9 0 0 1 16 8.24V16a6 6 0 1 1-6-6q.275-.015.55 0a.49.49 0 0 1 .45.49v2a.48.48 0 0 1-.17.37.49.49 0 0 1-.4.12A3 3 0 0 0 10 13a3 3 0 1 0 3 3V2.5a.5.5 0 0 1 .5-.5h2a.5.5 0 0 1 .5.45A5 5 0 0 0 20.55 7a.5.5 0 0 1 .45.48"/></symbol><symbol viewBox="0 0 24 24" id="time"><path fill="currentColor" d="M12 2C6.477 2 2 6.477 2 12s4.477 10 10 10 10-4.477 10-10A10 10 0 0 0 12 2m0 18a8 8 0 1 1 0-16 8 8 0 0 1 0 16m.88-8.36V6.5a.5.5 0 0 0-.5-.5h-.76a.5.5 0 0 0-.5.5v5.66a.53.53 0 0 0 .15.35l4 4a.51.51 0 0 0 .71 0l.53-.53a.51.51 0 0 0 0-.71z"/></symbol><symbol viewBox="0 0 24 24" id="toggle-off"><path fill="currentColor" d="M16 6H8a6 6 0 1 0 0 12h8a6 6 0 0 0 0-12M8 16a4 4 0 1 1 0-8 4 4 0 0 1 0 8"/></symbol><symbol viewBox="0 0 24 24" id="trending"><path fill="currentColor" d="M22 5.5v5a.5.5 0 0 1-.5.5h-.29a.5.5 0 0 1-.36-.15l-1.64-1.64-5.36 5.35a.48.48 0 0 1-.7 0l-2.65-2.65-6.94 6.94a.5.5 0 0 1-.71 0l-.7-.7a.5.5 0 0 1 0-.71l8-8a.48.48 0 0 1 .7 0l2.65 2.65 4.29-4.3-1.64-1.64a.5.5 0 0 1-.15-.36V5.5a.5.5 0 0 1 .5-.5h5a.5.5 0 0 1 .5.5"/></symbol><symbol viewBox="0 0 24 24" id="tune"><path fill="currentColor" d="M20.492 5H8.822A2.997 2.997 0 0 0 3 6a2.997 2.997 0 0 0 5.823 1h11.669a.5.5 0 0 0 .5-.5v-1a.5.5 0 0 0-.5-.5M6.006 7a1 1 0 1 1 0-2 1 1 0 0 1 0 2m14.486 4h-5.675a2.997 2.997 0 0 0-5.634 0H3.508a.5.5 0 0 0-.5.5v1a.5.5 0 0 0 .5.5h5.675a2.997 2.997 0 0 0 5.634 0h5.675a.5.5 0 0 0 .5-.5v-1a.5.5 0 0 0-.5-.5M12 13a1 1 0 1 1 0-2 1 1 0 0 1 0 2m5.994 2a3 3 0 0 0-2.817 2H3.508a.5.5 0 0 0-.5.5v1a.5.5 0 0 0 .5.5h11.669a2.997 2.997 0 0 0 5.803-1.345A3 3 0 0 0 17.994 15m0 4a1 1 0 1 1 .001-2 1 1 0 0 1 0 2"/></symbol><symbol viewBox="0 0 24 24" id="twitter-x"><g clip-path="url(#asa)" transform="translate(3.2 2.77)"><path fill="currentColor" d="m17.95 17.142-3.377-4.501q-1.886-2.513-3.775-5.022c-.043-.058-.037-.086.01-.135q.424-.452.845-.908L16.85.986c.11-.117.218-.236.333-.36-.022-.005-.03-.008-.038-.008q-.734 0-1.464-.002c-.048 0-.075.023-.104.054l-2.249 2.42-3.218 3.465c-.05.054-.07.05-.112-.006q-.272-.369-.55-.735Q7.52 3.247 5.593.678C5.555.629 5.518.616 5.461.616L.34.618C.311.618.282.609.254.625c0 .03.023.046.038.066l2.764 3.683L7.071 9.72c.036.047.033.073-.006.114l-3.631 3.905-2.846 3.06c-.127.137-.245.284-.39.406v.017c.03.016.062.008.094.008H1.72a.11.11 0 0 0 .107-.046c.08-.1.173-.189.26-.283l.868-.935 1.094-1.177.868-.935 1.095-1.176q.391-.423.787-.844.133-.138.262-.28c.229-.257.47-.502.698-.76.036-.04.066-.038.099.006l.176.24q.938 1.245 1.874 2.495l2.724 3.628c.028.039.058.073.113.067h5.228q.026 0 .027-.026l-.049-.061m-2.34-1.066q-1.118 0-2.235.002a.16.16 0 0 1-.145-.071Q9.285 10.747 5.336 5.49L2.582 1.821l-.039-.057h.127l2.21-.001c.06 0 .099.016.136.066l7.165 9.546 3.468 4.618q.025.033.05.07c-.031.022-.06.013-.088.013"/></g><defs><clipPath id="asa"><path fill="currentColor" d="M.198.615H18V17.23H.198z"/></clipPath></defs></symbol><symbol viewBox="0 0 24 24" id="undo"><path fill="currentColor" d="M22 15.46a.5.5 0 0 1-.5.54H20a.49.49 0 0 1-.49-.45c-.29-2.82-3.31-5.05-7-5.05a7.9 7.9 0 0 0-5.19 1.83l2.52 2.52a.5.5 0 0 1 .15.36v.29a.5.5 0 0 1-.5.5h-7a.5.5 0 0 1-.5-.5v-7A.5.5 0 0 1 2.5 8h.29a.5.5 0 0 1 .36.15l2.42 2.42a10.37 10.37 0 0 1 7-2.57c4.98 0 9.1 3.29 9.43 7.46"/></symbol><symbol viewBox="0 0 24 24" id="upscale"><path fill="currentColor" d="M21 14.5V19a2 2 0 0 1-2 2H5a2 2 0 0 1-2-2V5a2 2 0 0 1 2-2h4.5a.5.5 0 0 1 .5.5v1a.5.5 0 0 1-.5.5H5v14h14v-4.5a.5.5 0 0 1 .5-.5h1a.5.5 0 0 1 .5.5m-.22-11-.27-.27A.75.75 0 0 0 20 3h-6.5a.5.5 0 0 0-.5.5v1a.5.5 0 0 0 .5.5h4.09l-4.44 4.44a.5.5 0 0 0 0 .71l.7.7a.5.5 0 0 0 .71 0L19 6.42v4.08a.5.5 0 0 0 .5.5h1a.5.5 0 0 0 .5-.5V4a.75.75 0 0 0-.22-.51z"/><path fill="currentColor" d="M4.5 12H10a2 2 0 0 1 2 2v5.5a.5.5 0 0 1-.5.5h-1a.5.5 0 0 1-.5-.5V14H4.5a.5.5 0 0 1-.5-.5v-1a.5.5 0 0 1 .5-.5"/></symbol><symbol viewBox="0 0 24 24" id="user"><path fill="currentColor" d="M8.001 8a4 4 0 0 1 4.002-4A4 4 0 1 1 8 8m11.895 10.55-1.44-2.89A3 3 0 0 0 15.763 14H8.242a3 3 0 0 0-2.692 1.66l-1.44 2.89A1 1 0 0 0 5 20h14.006a1 1 0 0 0 .89-1.45"/></symbol><symbol viewBox="0 0 24 24" id="verified"><path fill="currentColor" d="M21.616 13.167a3.2 3.2 0 0 1 0-2.32l.17-.46a3.27 3.27 0 0 0-1.71-4.15l-.45-.23a3.3 3.3 0 0 1-1.62-1.62l-.2-.45a3.27 3.27 0 0 0-4.152-1.71l-.46.17c-.747.29-1.575.29-2.321 0l-.46-.17a3.27 3.27 0 0 0-4.182 1.71l-.23.45a3.3 3.3 0 0 1-1.62 1.62l-.45.2a3.27 3.27 0 0 0-1.711 4.15l.17.46c.29.746.29 1.574 0 2.32l-.17.46a3.27 3.27 0 0 0 1.71 4.15l.45.2a3.3 3.3 0 0 1 1.621 1.68l.2.45a3.27 3.27 0 0 0 4.152 1.71l.46-.17a3.2 3.2 0 0 1 2.32 0l.46.17a3.27 3.27 0 0 0 4.152-1.71l.2-.45a3.3 3.3 0 0 1 1.68-1.62l.45-.2a3.27 3.27 0 0 0 1.711-4.15zm-5.261-3.43-5.622 5.62a.48.48 0 0 1-.7 0l-2.381-2.35a.5.5 0 0 1 0-.71l.53-.53a.48.48 0 0 1 .7 0l1.5 1.49 4.742-4.74a.5.5 0 0 1 .7 0l.53.53a.5.5 0 0 1 0 .69"/></symbol><symbol viewBox="0 0 24 24" id="verified-outlined"><path fill="currentColor" d="M14.794 4a1.25 1.25 0 0 1 1.15.74l.21.46a5.3 5.3 0 0 0 2.661 2.66l.44.19a1.29 1.29 0 0 1 .66 1.64l-.16.43a5.16 5.16 0 0 0 0 3.73l.17.49a1.25 1.25 0 0 1-.65 1.6l-.46.21a5.3 5.3 0 0 0-2.66 2.66l-.19.44a1.27 1.27 0 0 1-1.16.75 1.5 1.5 0 0 1-.481-.09l-.43-.16a5.1 5.1 0 0 0-1.89-.35 5 5 0 0 0-1.851.34l-.49.17c-.143.06-.296.09-.45.09a1.25 1.25 0 0 1-1.151-.74l-.21-.46a5.3 5.3 0 0 0-2.661-2.66l-.44-.14a1.29 1.29 0 0 1-.66-1.64l.16-.43c.465-1.2.465-2.53 0-3.73l-.17-.49a1.25 1.25 0 0 1 .65-1.6l.46-.21a5.3 5.3 0 0 0 2.67-2.71l.19-.44A1.27 1.27 0 0 1 9.213 4c.164.003.327.033.48.09l.43.16a5.1 5.1 0 0 0 1.881.35 5 5 0 0 0 1.85-.34l.49-.17q.218-.09.451-.09m0-2c-.4 0-.797.075-1.17.22l-.46.17a3.3 3.3 0 0 1-2.321 0l-.46-.17A3.26 3.26 0 0 0 6.23 3.93L6 4.38A3.3 3.3 0 0 1 4.381 6l-.45.2a3.27 3.27 0 0 0-1.711 4.15l.17.46c.29.746.29 1.574 0 2.32l-.17.46a3.27 3.27 0 0 0 1.71 4.15l.45.2a3.3 3.3 0 0 1 1.621 1.68l.2.45a3.26 3.26 0 0 0 4.152 1.71l.46-.17a3.3 3.3 0 0 1 2.32 0l.46.17a3.26 3.26 0 0 0 4.152-1.71l.2-.45a3.3 3.3 0 0 1 1.68-1.62l.45-.2a3.27 3.27 0 0 0 1.711-4.15l-.17-.46a3.2 3.2 0 0 1 0-2.32l.17-.46a3.27 3.27 0 0 0-1.71-4.15l-.45-.26a3.3 3.3 0 0 1-1.62-1.62l-.2-.45A3.26 3.26 0 0 0 14.803 2zm.68 6.35a.5.5 0 0 0-.35.14l-4.741 4.74-1.5-1.49a.48.48 0 0 0-.701 0l-.53.53a.5.5 0 0 0 0 .71l2.35 2.37a.47.47 0 0 0 .35.15.5.5 0 0 0 .35-.15l5.623-5.62a.5.5 0 0 0 0-.71l-.53-.53a.5.5 0 0 0-.35-.14z"/></symbol><symbol viewBox="0 0 24 24" id="video-gen"><path fill="var(--color-content-primary, currentcolor)" d="M18.7 20.689V22H5.3v-1.311zm1.572-1.573V9.978H3.728v9.138c0 .868.705 1.573 1.573 1.573V22l-.148-.004a2.884 2.884 0 0 1-2.732-2.732l-.004-.148V8.666h19.166v10.45l-.003.148a2.884 2.884 0 0 1-2.732 2.732l-.149.004v-1.311c.869 0 1.573-.705 1.573-1.573"/><path fill="var(--color-content-primary-accent, currentcolor)" fill-rule="evenodd" clip-rule="evenodd" d="M9.14 18.933v-8.045l6.967 4.022zm1.311-5.774v3.503l3.034-1.752z"/><path fill="var(--color-content-primary, currentcolor)" d="M2.417 7.417h.417v2.916h-.417z"/><path fill="var(--color-content-primary, currentcolor)" d="m20.98 2 .696 4.951L2.696 9.62 2 4.667zM3.812 8.137l16.383-2.302-.331-2.354L3.48 5.784z"/><path fill="var(--color-content-primary, currentcolor)" d="m6.792 4.027 1.016.83-2.913 4.267-1.016-.83zm3.978-.559 1.016.83-2.913 4.267-1.015-.83zm4.127-.58 1.015.83-2.913 4.267-1.015-.83zm4.126-.58 1.015.83-2.913 4.267-1.015-.83z"/></symbol><symbol viewBox="0 0 24 24" id="video-horizontal"><path fill="currentColor" d="M20 4a2 2 0 0 1 2 2v12a2 2 0 0 1-2 2H4a2 2 0 0 1-2-2V6a2 2 0 0 1 2-2zm-9.482 4.153a1.04 1.04 0 0 0-1-.049.89.89 0 0 0-.518.79v6.211c0 .332.2.636.518.79.317.155.702.137 1-.048l5.047-3.107A.87.87 0 0 0 16 12a.87.87 0 0 0-.435-.74z"/></symbol><symbol viewBox="0 0 24 24" id="video-templates"><path fill="currentColor" fill-rule="evenodd" clip-rule="evenodd" d="M14.41 6H20a2 2 0 0 1 2 2v10a2 2 0 0 1-2 2H4a2 2 0 0 1-2-2V6a2 2 0 0 1 2-2h7.59a1 1 0 0 1 .7.29l1.42 1.42a1 1 0 0 0 .7.29m3.273 4.066h.055c.165 0 .3.115.3.257v4.629c0 .142-.135.257-.3.257h-.055a.65.65 0 0 1-.42-.15l-2.626-1.393v1.543c0 .568-.537 1.029-1.2 1.029h-6.2c-.662 0-1.2-.461-1.2-1.029v-5.143c0-.568.538-1.028 1.2-1.028h6.2c.663 0 1.2.46 1.2 1.028v1.543l2.627-1.394a.65.65 0 0 1 .42-.149"/></symbol><symbol viewBox="0 0 24 24" id="vimeo"><path fill="currentColor" d="M21.99 6.993q-.135 2.913-4.078 7.978-4.08 5.289-6.903 5.289-1.747 0-2.958-3.227l-1.614-5.917Q5.541 7.89 4.51 7.89q-.224 0-1.569.941L2 7.62q1.467-1.288 2.913-2.6 1.972-1.702 2.959-1.792 2.33-.225 2.868 3.182.583 3.675.807 4.572.672 3.048 1.479 3.048.627 0 1.882-1.973 1.255-1.971 1.345-3.002.18-1.704-1.345-1.704-.716 0-1.479.314 1.48-4.796 5.648-4.661 3.093.09 2.913 3.989"/></symbol><symbol viewBox="0 0 24 24" id="voice-gen"><path fill="var(--color-content-primary-accent, currentcolor)" fill-rule="evenodd" clip-rule="evenodd" d="M12.008 15.858a3.855 3.855 0 0 1-3.858-3.85V5.85A3.855 3.855 0 0 1 12.008 2a3.855 3.855 0 0 1 3.858 3.85v6.159a3.855 3.855 0 0 1-3.858 3.85M14.323 5.85a2.316 2.316 0 0 0-4.63 0v6.16a2.316 2.316 0 0 0 4.63 0z"/><path fill="var(--color-content-primary, currentcolor)" d="M6.54 10.977v1.025a5.39 5.39 0 0 0 5.39 5.384 5.39 5.39 0 0 0 5.388-5.384v-1.026h1.54v1.026c0 3.558-2.7 6.491-6.159 6.88v1.58h2.31V22h-6.16v-1.538h2.31v-1.58A6.93 6.93 0 0 1 5 12.003v-1.026z"/></symbol><symbol viewBox="0 0 24 24" id="volume-off"><path fill="currentColor" d="M13 5v14a1 1 0 0 1-1 1h-.59a1 1 0 0 1-.7-.29l-3.83-3.83A3 3 0 0 0 4.76 15 1.76 1.76 0 0 1 3 13.24v-2.48C3 9.788 3.788 9 4.76 9a3 3 0 0 0 2.12-.88l3.83-3.83a1 1 0 0 1 .7-.29H12a1 1 0 0 1 1 1m6.24 7 1.61-1.62a.48.48 0 0 0 0-.7l-.53-.53a.48.48 0 0 0-.7 0L18 10.76l-1.62-1.61a.48.48 0 0 0-.7 0l-.53.53a.48.48 0 0 0 0 .7L16.76 12l-1.61 1.62a.48.48 0 0 0 0 .7l.53.53a.48.48 0 0 0 .7 0L18 13.24l1.62 1.61a.48.48 0 0 0 .7 0l.53-.53a.48.48 0 0 0 0-.7z"/></symbol><symbol viewBox="0 0 24 24" id="volume-on"><path fill="currentColor" d="M13.01 5v14a1 1 0 0 1-1 1h-.591a1 1 0 0 1-.7-.29l-3.835-3.83A3 3 0 0 0 4.762 15 1.76 1.76 0 0 1 3 13.24v-2.48C3 9.788 3.789 9 4.762 9a3 3 0 0 0 2.122-.88l3.834-3.83a1 1 0 0 1 .7-.29h.591a1 1 0 0 1 1.002 1m6.007 1.73a.58.58 0 0 0-.36-.17.5.5 0 0 0-.371.15l-.71.71a.5.5 0 0 0 0 .68 5.995 5.995 0 0 1 0 7.8.5.5 0 0 0 0 .68l.71.71c.097.1.231.154.37.15a.56.56 0 0 0 .36-.17 7.994 7.994 0 0 0 0-10.54M15.854 9.4a.53.53 0 0 0-.39.15l-.712.72a.5.5 0 0 0-.07.63c.44.668.44 1.532 0 2.2a.5.5 0 0 0 .07.63l.711.72a.52.52 0 0 0 .76-.05 4 4 0 0 0 0-4.8.57.57 0 0 0-.37-.2"/></symbol><symbol viewBox="0 0 24 24" id="warning"><path fill="currentColor" d="M22.905 19.63 12.813 2.37a.76.76 0 0 0-.65-.37h-.3a.76.76 0 0 0-.65.37L1.1 19.63a.79.79 0 0 0 0 .76l.14.23a.73.73 0 0 0 .65.38h20.225a.73.73 0 0 0 .65-.38l.14-.23a.79.79 0 0 0 0-.76m-9.902-3.13a.5.5 0 0 1-.5.5h-1a.5.5 0 0 1-.5-.5v-1a.5.5 0 0 1 .5-.5h1a.5.5 0 0 1 .5.5zm-.22-3.72a.25.25 0 0 1-.25.22h-1.06a.25.25 0 0 1-.25-.22l-.4-3.22a.5.5 0 0 1 .5-.56h1.36a.5.5 0 0 1 .5.56z"/></symbol><symbol viewBox="0 0 192 72" id="waveform"><path fill="currentColor" d="M.829 28.253h6.397v15.494H.829zm10.234-10.937h6.397v37.367h-6.397zm10.236 3.646h6.397v30.076h-6.397zm10.235 6.38h6.397v17.317h-6.397zm10.235 2.734h6.397v11.848h-6.397zm10.235-12.76h6.397v37.367h-6.397zM62.239 0h6.397v72h-6.397zm10.235 13.671h6.397v44.658h-6.397zM82.71 28.253h6.397v15.494H82.71zm10.235-3.645h6.397v22.785h-6.397zm10.234-7.292h6.397v37.367h-6.397zm10.236-4.557h6.397V59.24h-6.397zm10.235-8.088h6.397v62.658h-6.397zm10.235 11.734h6.397v39.19h-6.397zm10.235-3.646h6.397V59.24h-6.397zm10.235 7.747h6.397v30.987h-6.397zm10.235-6.835h6.397v44.658h-6.397zm10.235-1.823h6.397v48.304h-6.397zm10.236 12.76h6.397v22.785h-6.397z"/></symbol><symbol viewBox="0 0 24 24" id="website"><path fill="currentColor" d="M20 4H4a2 2 0 0 0-2 2v12a2 2 0 0 0 2 2h16a2 2 0 0 0 2-2V6a2 2 0 0 0-2-2m0 14H4V8h16zM6.5 16h4a.5.5 0 0 0 .5-.5v-5a.5.5 0 0 0-.5-.5h-4a.5.5 0 0 0-.5.5v5a.5.5 0 0 0 .5.5m7-4h4a.5.5 0 0 0 .5-.5v-1a.5.5 0 0 0-.5-.5h-4a.5.5 0 0 0-.5.5v1a.5.5 0 0 0 .5.5m0 4h2a.5.5 0 0 0 .5-.5v-1a.5.5 0 0 0-.5-.5h-2a.5.5 0 0 0-.5.5v1a.5.5 0 0 0 .5.5"/></symbol><symbol viewBox="0 0 24 24" id="wordpress"><path fill="currentColor" d="M12.058 1.116c-6.033 0-10.942 4.908-10.942 10.942S6.025 23 12.058 23 23 18.091 23 12.058 18.09 1.116 12.058 1.116M2.22 12.058a9.8 9.8 0 0 1 .852-4.004l4.693 12.857a9.84 9.84 0 0 1-5.545-8.853m9.838 9.838a9.8 9.8 0 0 1-2.78-.4l2.953-8.578 3.023 8.285q.031.072.07.135a9.8 9.8 0 0 1-3.266.558m1.356-14.45a21 21 0 0 0 1.126-.094c.53-.063.467-.842-.063-.811 0 0-1.594.125-2.622.125-.967 0-2.591-.125-2.591-.125-.53-.031-.593.78-.062.81 0 0 .501.063 1.031.094l1.533 4.2-2.153 6.457L6.03 7.445c.592-.03 1.125-.093 1.125-.093.53-.063.468-.842-.062-.811 0 0-1.594.125-2.622.125-.185 0-.403-.004-.634-.012a9.83 9.83 0 0 1 8.22-4.434A9.8 9.8 0 0 1 18.7 4.803q-.063-.006-.127-.008c-.967 0-1.652.842-1.652 1.746 0 .81.467 1.497.966 2.307.374.655.811 1.497.811 2.714 0 .841-.324 1.818-.748 3.18l-.982 3.278zm7.277-.108a9.8 9.8 0 0 1 1.204 4.72 9.83 9.83 0 0 1-4.891 8.503l3.005-8.688c.56-1.403.748-2.525.748-3.523q-.001-.542-.067-1.012"/></symbol><symbol viewBox="0 0 24 24" id="youtube-filled"><path fill="currentColor" d="M21.551 6.96c-.191-1.056-1.102-1.824-2.16-2.064-1.582-.336-4.511-.576-7.68-.576-3.167 0-6.142.24-7.727.576-1.055.24-1.968.96-2.16 2.064-.193 1.2-.384 2.88-.384 5.04s.191 3.84.431 5.04c.193 1.056 1.105 1.824 2.16 2.064 1.68.336 4.56.576 7.729.576s6.049-.24 7.729-.576c1.055-.24 1.967-.96 2.16-2.064.19-1.2.43-2.929.48-5.04-.098-2.16-.338-3.84-.578-5.04M9.12 15.36V8.64L14.976 12z"/></symbol><symbol viewBox="0 0 24 24" id="youtube-outlined"><path fill="currentColor" d="m20.727 3.551-1.593-.169a67.3 67.3 0 0 0-14.334 0l-1.527.17C1.387 3.77-.028 5.43 0 7.386v9.226c-.028 1.956 1.387 3.616 3.273 3.836l1.593.168A66 66 0 0 0 12 21a67 67 0 0 0 7.167-.383l1.56-.168c1.886-.22 3.301-1.88 3.273-3.837V7.388c.028-1.956-1.387-3.616-3.273-3.836m1.09 13.062c.031.793-.524 1.483-1.286 1.597l-1.593.169a65 65 0 0 1-13.876 0l-1.592-.17c-.762-.114-1.317-.804-1.287-1.598V7.388c-.03-.793.525-1.483 1.287-1.597l1.593-.169a65 65 0 0 1 13.876 0l1.593.169c.762.114 1.317.804 1.287 1.597zM11.096 8.377a.8.8 0 0 0-.842-.046.85.85 0 0 0-.435.744v5.85c0 .312.168.598.435.744a.8.8 0 0 0 .842-.046l4.243-2.925a.84.84 0 0 0 .367-.698.84.84 0 0 0-.367-.697z"/></symbol></svg>