<svg preserveAspectRatio="none" width="100%" height="100%" overflow="visible" style="display: block;" viewBox="0 0 32 32" fill="none" xmlns="http://www.w3.org/2000/svg">
<g id="minimax 1">
<path id="Vector" fill-rule="evenodd" clip-rule="evenodd" d="M21.704 2.66667C23.2453 2.66667 24.4947 3.90267 24.4947 5.42667V22.0947C24.5054 22.35 24.6148 22.5913 24.7998 22.7676C24.9848 22.944 25.2311 23.0416 25.4867 23.04C25.742 23.0413 25.9879 22.9435 26.1727 22.7672C26.3574 22.5909 26.4666 22.3498 26.4773 22.0947V12.132C26.4793 11.7713 26.5522 11.4145 26.692 11.082C26.8318 10.7495 27.0358 10.4478 27.2922 10.1941C27.5486 9.94041 27.8525 9.73971 28.1864 9.60345C28.5204 9.4672 28.878 9.39807 29.2387 9.4C29.5995 9.39807 29.9571 9.46725 30.2912 9.60358C30.6253 9.73992 30.9292 9.94074 31.1856 10.1946C31.4421 10.4484 31.646 10.7503 31.7857 11.0829C31.9254 11.4156 31.9983 11.7725 32 12.1333V20.8813C31.9986 21.1106 31.9063 21.3299 31.7433 21.4912C31.5803 21.6524 31.3599 21.7424 31.1307 21.7413C31.017 21.742 30.9044 21.7203 30.7991 21.6775C30.6939 21.6347 30.5981 21.5715 30.5172 21.4917C30.4364 21.4118 30.372 21.3168 30.3279 21.2121C30.2838 21.1074 30.2607 20.995 30.26 20.8813V12.1333C30.2593 11.9999 30.2323 11.8679 30.1806 11.7449C30.1289 11.6219 30.0535 11.5103 29.9587 11.4165C29.8638 11.3226 29.7514 11.2484 29.6279 11.198C29.5043 11.1475 29.3721 11.122 29.2387 11.1227C29.1052 11.122 28.973 11.1475 28.8495 11.198C28.7259 11.2484 28.6135 11.3226 28.5187 11.4165C28.4238 11.5103 28.3484 11.6219 28.2967 11.7449C28.245 11.8679 28.218 11.9999 28.2173 12.1333V22.096C28.2154 22.4527 28.1433 22.8055 28.005 23.1343C27.8667 23.463 27.665 23.7614 27.4115 24.0122C27.1579 24.2631 26.8574 24.4615 26.5272 24.5962C26.1969 24.7309 25.8433 24.7993 25.4867 24.7973C25.13 24.7993 24.7764 24.7309 24.4462 24.5962C24.1159 24.4615 23.8154 24.2631 23.5619 24.0122C23.3083 23.7614 23.1066 23.463 22.9683 23.1343C22.8301 22.8055 22.7579 22.4527 22.756 22.096V5.42933C22.745 5.15851 22.6293 4.90253 22.4333 4.71527C22.2373 4.52801 21.9764 4.42407 21.7053 4.42533C21.4343 4.42371 21.1732 4.52731 20.9769 4.71432C20.7807 4.90134 20.6647 5.15718 20.6533 5.428L20.652 26.6333C20.6478 27.3534 20.3577 28.0424 19.8457 28.5487C19.3336 29.055 18.6414 29.3372 17.9213 29.3333C17.5647 29.3353 17.2111 29.2669 16.8808 29.1322C16.5506 28.9975 16.2501 28.7991 15.9965 28.5482C15.743 28.2974 15.5413 27.999 15.403 27.6703C15.2647 27.3415 15.1926 26.9887 15.1907 26.632V24.0533C15.1907 23.5787 15.58 23.1933 16.06 23.1933C16.54 23.1933 16.9293 23.5787 16.9293 24.0533V26.632C16.9293 26.9827 17.1187 27.3067 17.4253 27.4827C17.732 27.6573 18.1107 27.6573 18.4173 27.4827C18.5678 27.3974 18.693 27.2737 18.7801 27.1243C18.8672 26.9748 18.9132 26.805 18.9133 26.632V5.42667C18.9133 3.90267 20.1627 2.66667 21.704 2.66667ZM14.1387 2.66667C15.68 2.66667 16.9293 3.90267 16.9293 5.42667V20.7907C16.9288 20.9042 16.9059 21.0166 16.8619 21.1213C16.8179 21.226 16.7537 21.321 16.673 21.4009C16.5922 21.4808 16.4965 21.544 16.3914 21.5868C16.2862 21.6297 16.1736 21.6514 16.06 21.6507C15.9464 21.6514 15.8338 21.6297 15.7286 21.5868C15.6235 21.544 15.5278 21.4808 15.447 21.4009C15.3663 21.321 15.3021 21.226 15.2581 21.1213C15.2141 21.0166 15.1912 20.9042 15.1907 20.7907V5.42667C15.1889 5.1493 15.0771 4.88398 14.8799 4.68898C14.6826 4.49398 14.416 4.38525 14.1387 4.38667C13.8613 4.38525 13.5947 4.49398 13.3975 4.68898C13.2002 4.88398 13.0884 5.1493 13.0867 5.42667V24.1107C13.0824 24.8387 12.7894 25.5352 12.2718 26.0472C11.7543 26.5593 11.0547 26.8449 10.3267 26.8413C9.59843 26.8452 8.89846 26.5598 8.38064 26.0477C7.86283 25.5356 7.56957 24.8389 7.56533 24.1107V12.1333C7.56463 11.9999 7.53766 11.8679 7.48596 11.7449C7.43425 11.6219 7.35883 11.5103 7.26399 11.4165C7.16915 11.3226 7.05675 11.2484 6.93321 11.198C6.80968 11.1475 6.67742 11.122 6.544 11.1227C6.41058 11.122 6.27832 11.1475 6.15479 11.198C6.03125 11.2484 5.91885 11.3226 5.82401 11.4165C5.72917 11.5103 5.65375 11.6219 5.60204 11.7449C5.55034 11.8679 5.52337 11.9999 5.52267 12.1333V17.2C5.52075 17.5607 5.4478 17.9175 5.30799 18.25C5.16818 18.5825 4.96424 18.8842 4.70783 19.1379C4.45141 19.3916 4.14754 19.5923 3.81356 19.7285C3.47958 19.8648 3.12203 19.9339 2.76133 19.932C2.40063 19.9339 2.04309 19.8648 1.70911 19.7285C1.37513 19.5923 1.07125 19.3916 0.81484 19.1379C0.558425 18.8842 0.35449 18.5825 0.21468 18.25C0.0748692 17.9175 0.00192092 17.5607 0 17.2L0 15.3627C0 14.8867 0.389333 14.5013 0.869333 14.5013C1.34933 14.5013 1.74 14.888 1.74 15.3627V17.2C1.74 17.7573 2.19733 18.2093 2.76133 18.2093C3.32533 18.2093 3.78267 17.7573 3.78267 17.2V12.132C3.7869 11.404 4.07998 10.7075 4.5975 10.1954C5.11503 9.68341 5.81466 9.39779 6.54267 9.40133C7.2709 9.39743 7.97088 9.6829 8.48869 10.195C9.00651 10.707 9.29977 11.4038 9.304 12.132V24.1107C9.304 24.6693 9.76133 25.1213 10.3267 25.1213C10.8907 25.1213 11.348 24.6693 11.348 24.1107V5.42667C11.348 3.90267 12.5973 2.66667 14.1387 2.66667Z" fill="var(--fill-0, black)"/>
</g>
</svg>
